<?xml version="1.0" encoding="utf-8"?>
<!-- Generator: Adobe Illustrator 21.1.0, SVG Export Plug-In . SVG Version: 6.00 Build 0)  -->
<svg version="1.1" id="Слой_1" xmlns="http://www.w3.org/2000/svg" xmlns:xlink="http://www.w3.org/1999/xlink" x="0px" y="0px"
	 viewBox="0 0 256.2 256.2" style="enable-background:new 0 0 256.2 256.2;" xml:space="preserve">
<style type="text/css">
	.st0{fill:#FFFFFF;}
	.st1{fill:#D04D43;}
	.st2{fill:#283C4A;}
	.st3{fill:#523336;}
	.st4{fill:#F9E8D9;}
	.st5{opacity:0.14;fill:#FFFFFF;}
</style>
<circle id="круг" class="st0" cx="128.1" cy="128.1" r="128.1"/>
<path class="st1" d="M99.8,188.8c0,0.5,0.1,19.9,0.1,19.9l5.8-4.1l5.5,5.1l0.1-20.3L99.8,188.8z"/>
<path class="st2" d="M162.4,192.3c-0.1,0-0.3,0-0.4,0l-3.4,0l-63.4,0l-12.5,0l0-129.7l75.9,0l1.5,0c0.8,0,1.6,0.1,2.3,0.2
	c4.6,0.8,8.4,3.9,10.3,8c0.8,1.7,1.2,3.6,1.2,5.5l0,104.1C173.8,186.8,168.7,192.1,162.4,192.3z"/>
<rect x="82.6" y="62.6" class="st3" width="9.5" height="129.7"/>
<rect x="92.1" y="125.7" class="st4" width="81.7" height="39.4"/>
<path class="st1" d="M162.4,192.3c-0.1,0-0.3,0-0.4,0l-3.4,0l0-129.7l1.5,0c0.8,0,1.6,0.1,2.3,0.2L162.4,192.3z"/>
<path class="st5" d="M172.6,70.8L95.1,192.3l0,0l-12.5,0l0-129.7l75.9,0l1.5,0c0.8,0,1.6,0.1,2.3,0.2
	C166.9,63.6,170.8,66.7,172.6,70.8z"/>
</svg>
