<?xml version="1.0" encoding="utf-8"?>
<!-- Generator: Adobe Illustrator 21.1.0, SVG Export Plug-In . SVG Version: 6.00 Build 0)  -->
<svg version="1.1" id="Слой_1" xmlns="http://www.w3.org/2000/svg" xmlns:xlink="http://www.w3.org/1999/xlink" x="0px" y="0px"
	 viewBox="0 0 256.2 256.2" style="enable-background:new 0 0 256.2 256.2;" xml:space="preserve">
<style type="text/css">
	.st0{fill:#444A67;}
	.st1{fill:#FFFFFF;}
	.st2{fill:#BE4E45;}
	.st3{fill:#2C3A4A;}
	.st4{fill:#FDFEFF;}
</style>
<circle class="st0" cx="128.1" cy="128.1" r="128.1"/>
<path class="st1" d="M207.1,128c0,43.3-35.1,78.5-78.5,78.5c-43.3,0-78.4-35.1-78.4-78.5c0-43.3,35.1-78.5,78.4-78.5
	C172,49.6,207.1,84.7,207.1,128z"/>
<path class="st2" d="M128.7,49.6c43.3,0,78.5,35.1,78.5,78.5c0,43.3-35.1,78.5-78.5,78.5c-43.3,0-78.4-35.1-78.4-78.5
	C50.2,84.7,85.3,49.6,128.7,49.6 M128.7,42.7c-5.8,0-11.6,0.6-17.2,1.7c-5.5,1.1-10.9,2.8-16,5c-5.1,2.1-9.9,4.8-14.5,7.9
	c-4.5,3.1-8.8,6.6-12.6,10.4c-3.9,3.9-7.4,8.1-10.4,12.6c-3.1,4.6-5.7,9.4-7.9,14.5c-2.2,5.2-3.9,10.5-5,16
	c-1.2,5.6-1.7,11.4-1.7,17.2c0,5.8,0.6,11.6,1.7,17.2c1.1,5.5,2.8,10.9,5,16c2.1,5.1,4.8,9.9,7.9,14.5c3.1,4.5,6.6,8.8,10.4,12.6
	c3.9,3.9,8.1,7.4,12.6,10.4c4.6,3.1,9.4,5.7,14.5,7.9c5.2,2.2,10.5,3.9,16,5c5.6,1.2,11.4,1.7,17.2,1.7c5.8,0,11.6-0.6,17.2-1.7
	c5.5-1.1,10.9-2.8,16-5c5.1-2.1,9.9-4.8,14.5-7.9c4.5-3.1,8.8-6.6,12.6-10.4c3.9-3.9,7.4-8.1,10.4-12.6c3.1-4.6,5.7-9.4,7.9-14.5
	c2.2-5.2,3.9-10.5,5-16c1.2-5.6,1.7-11.4,1.7-17.2c0-5.8-0.6-11.6-1.7-17.2c-1.1-5.5-2.8-10.9-5-16c-2.1-5.1-4.8-9.9-7.9-14.5
	c-3.1-4.5-6.6-8.8-10.4-12.6c-3.9-3.9-8.1-7.4-12.6-10.4c-4.6-3.1-9.4-5.7-14.5-7.9c-5.2-2.2-10.5-3.9-16-5
	C140.2,43.3,134.4,42.7,128.7,42.7L128.7,42.7z"/>
<rect x="137.9" y="127.1" transform="matrix(0.866 -0.5 0.5 0.866 -55.9651 89.8594)" class="st3" width="3.5" height="44.6"/>
<path class="st3" d="M128.8,123.6L128.8,123.6L128.8,123.6C128.8,123.6,128.8,123.6,128.8,123.6l-26.1-27c-0.7-0.9-1.8-1.5-3.1-1.5
	c-2.2,0-4,1.8-4,4c0,1.2,0.5,2.2,1.3,2.9l26.2,27.1c0.1,0.1,0.1,0.1,0.2,0.2c0.7,0.6,1.6,1,2.7,1c2.2,0,3.9-1.8,3.9-3.9
	C129.9,125.3,129.5,124.3,128.8,123.6z"/>
<path class="st3" d="M167.8,120L167.8,120L167.8,120C167.7,120,167.7,120,167.8,120l-33.9,4.2c-1,0-2.1,0.5-2.7,1.4
	c-1.2,1.6-0.9,3.9,0.7,5c0.8,0.6,1.9,0.8,2.8,0.7l34-4.2c0.1,0,0.2,0,0.2-0.1c0.9-0.2,1.7-0.6,2.2-1.4c1.2-1.6,0.9-3.8-0.7-5
	C169.6,120.1,168.7,119.9,167.8,120z"/>
<path class="st4" d="M134.4,128.4c0.5,3.1-2.1,5.7-5.2,5.2c-1.9-0.3-3.5-1.9-3.8-3.8c-0.5-3.1,2.1-5.7,5.2-5.2
	C132.5,124.9,134.1,126.5,134.4,128.4z"/>
<path class="st3" d="M130,72.4L130,72.4c-1.1,0-2-0.9-2-2V58.5c0-1.1,0.9-2,2-2l0,0c1.1,0,2,0.9,2,2v11.9
	C132,71.5,131.1,72.4,130,72.4z"/>
<path class="st3" d="M169.2,89.7L169.2,89.7c-0.8-0.8-0.8-2.1,0-2.8l8.4-8.4c0.8-0.8,2.1-0.8,2.8,0l0,0c0.8,0.8,0.8,2.1,0,2.8
	l-8.4,8.4C171.3,90.4,170,90.4,169.2,89.7z"/>
<path class="st3" d="M184.6,129.1L184.6,129.1c0-1.1,0.9-2,2-2l11.9,0c1.1,0,2,0.9,2,2l0,0c0,1.1-0.9,2-2,2l-11.9,0
	C185.5,131.1,184.6,130.2,184.6,129.1z"/>
<path class="st3" d="M168.3,167.1L168.3,167.1c0.8-0.8,2.1-0.8,2.8,0l8.4,8.4c0.8,0.8,0.8,2.1,0,2.8l0,0c-0.8,0.8-2.1,0.8-2.8,0
	l-8.4-8.4C167.5,169.2,167.5,167.9,168.3,167.1z"/>
<path class="st3" d="M130.1,183.8L130.1,183.8c1.1,0,2,0.9,2,2l0,11.9c0,1.1-0.9,2-2,2l0,0c-1.1,0-2-0.9-2-2l0-11.9
	C128.1,184.7,129,183.8,130.1,183.8z"/>
<path class="st3" d="M90.6,168.7L90.6,168.7c0.8,0.8,0.8,2.1,0,2.8l-8.4,8.4c-0.8,0.8-2.1,0.8-2.8,0l0,0c-0.8-0.8-0.8-2.1,0-2.8
	l8.4-8.4C88.6,167.9,89.8,167.9,90.6,168.7z"/>
<path class="st3" d="M73.4,129.3L73.4,129.3c0,1.1-0.9,2-2,2l-11.9,0c-1.1,0-2-0.9-2-2l0,0c0-1.1,0.9-2,2-2l11.9,0
	C72.5,127.3,73.4,128.2,73.4,129.3z"/>
<path class="st3" d="M89.7,89.2L89.7,89.2c-0.8,0.8-2.1,0.8-2.8,0l-8.4-8.4c-0.8-0.8-0.8-2.1,0-2.8l0,0c0.8-0.8,2.1-0.8,2.8,0
	l8.4,8.4C90.5,87.1,90.5,88.4,89.7,89.2z"/>
</svg>
