<?xml version="1.0" encoding="utf-8"?>
<!-- Generator: Adobe Illustrator 21.1.0, SVG Export Plug-In . SVG Version: 6.00 Build 0)  -->
<svg version="1.1" id="Слой_1" xmlns="http://www.w3.org/2000/svg" xmlns:xlink="http://www.w3.org/1999/xlink" x="0px" y="0px"
	 viewBox="0 0 256.2 256.2" style="enable-background:new 0 0 256.2 256.2;" xml:space="preserve">
<style type="text/css">
	.st0{fill:#FFFFFF;}
	.st1{opacity:0.5;}
</style>
<circle class="st0" cx="128.1" cy="128.1" r="128.1"/>
<g class="st1">
	<path d="M204.3,151c-2.5,0-4.8,1.2-6.3,3v-5.4c0-4.5-3.6-8.1-8.1-8.1c-3.3,0-6.1,1.9-7.4,4.7v-3.8c0-4.5-3.6-8.1-8.1-8.1
		c-4.5,0-8.1,3.6-8.1,8.1v25.3H89.7v-25.3c0-4.5-3.6-8.1-8.1-8.1c-4.5,0-8.1,3.6-8.1,8.1v3.8c-1.3-2.8-4.1-4.7-7.4-4.7
		c-4.5,0-8.1,3.6-8.1,8.1v5.4c-1.5-1.8-3.8-3-6.3-3c-4.5,0-8.1,3.6-8.1,8.1v31.4c0,4.5,3.6,8.1,8.1,8.1c2.5,0,4.8-1.2,6.3-3v5.4
		c0,4.5,3.6,8.1,8.1,8.1c3.3,0,6.1-1.9,7.4-4.7v3.8c0,4.5,3.6,8.1,8.1,8.1c4.5,0,8.1-3.6,8.1-8.1v-25.3h76.7v25.3
		c0,4.5,3.6,8.1,8.1,8.1c4.5,0,8.1-3.6,8.1-8.1v-3.8c1.3,2.8,4.1,4.7,7.4,4.7c4.5,0,8.1-3.6,8.1-8.1v-5.4c1.5,1.8,3.8,3,6.3,3
		c4.5,0,8.1-3.6,8.1-8.1v-31.4C212.4,154.6,208.8,151,204.3,151L204.3,151z M204.3,151"/>
	<path d="M204.3,57.6c-2.5,0-4.8,1.2-6.3,3v-5.4c0-4.5-3.6-8.1-8.1-8.1c-3.3,0-6.1,1.9-7.4,4.7V48c0-4.5-3.6-8.1-8.1-8.1
		c-4.5,0-8.1,3.6-8.1,8.1v25.3H89.7V48c0-4.5-3.6-8.1-8.1-8.1c-4.5,0-8.1,3.6-8.1,8.1v3.8c-1.3-2.8-4.1-4.7-7.4-4.7
		c-4.5,0-8.1,3.6-8.1,8.1v5.4c-1.5-1.8-3.8-3-6.3-3c-4.5,0-8.1,3.6-8.1,8.1v31.4c0,4.5,3.6,8.1,8.1,8.1c2.5,0,4.8-1.2,6.3-3v5.4
		c0,4.5,3.6,8.1,8.1,8.1c3.3,0,6.1-1.9,7.4-4.7v3.8c0,4.5,3.6,8.1,8.1,8.1c4.5,0,8.1-3.6,8.1-8.1V89.5h76.7v25.3
		c0,4.5,3.6,8.1,8.1,8.1c4.5,0,8.1-3.6,8.1-8.1V111c1.3,2.8,4.1,4.7,7.4,4.7c4.5,0,8.1-3.6,8.1-8.1v-5.4c1.5,1.8,3.8,3,6.3,3
		c4.5,0,8.1-3.6,8.1-8.1V65.7C212.4,61.3,208.8,57.6,204.3,57.6L204.3,57.6z M204.3,57.6"/>
</g>
</svg>
