<?xml version="1.0" encoding="utf-8"?>
<!-- Generator: Adobe Illustrator 21.1.0, SVG Export Plug-In . SVG Version: 6.00 Build 0)  -->
<svg version="1.1" id="Слой_1" xmlns="http://www.w3.org/2000/svg" xmlns:xlink="http://www.w3.org/1999/xlink" x="0px" y="0px"
	 viewBox="0 0 256.2 256.2" style="enable-background:new 0 0 256.2 256.2;" xml:space="preserve">
<style type="text/css">
	.st0{fill:#444A67;}
	.st1{fill:#5AB6B7;}
	.st2{fill:#2E353D;}
</style>
<circle class="st0" cx="128.1" cy="128.1" r="128.1"/>
<path class="st1" d="M188.9,184.9c-30.6,33.8-82.7,36.3-116.5,5.8c-33.8-30.6-36.3-82.7-5.8-116.5c30.6-33.8,82.7-36.3,116.5-5.8
	C216.9,99,219.5,151.1,188.9,184.9"/>
<path class="st2" d="M102.6,158c0.1-0.7,1-3.9,0.4-4.3c-1.1-0.9-1.6-1.8-3.6-1.7c-1.4,0-2.6,0.2-4.1,0c1.3-2.6,0.8-4.8,2.4-7.3
	c1.2-2-3.8-1.1-4.5-0.9c-1.2,0.3-0.9,0.9-1.1,2c-0.1,0.7-1.2,1.5-1.1,2.2c-0.5-0.1-1.1-0.1-1.7,0c-0.8,0.1-1.7,0.2-2.2-0.3
	c-1-0.8-1.7,0.4-2.4-0.9c-0.4-0.8-0.4-2.1-0.9-2.8c-1.1-1.7-1.5-5.1-0.3-6.8c1-1.5-0.6-3,0.9-4.2c0.7-0.5,1.5-2.7,1.5-3.8
	c1.3-0.1,3.9,1.4,5,1.4c0.3,0.8,2.1,1.6,2.2,0.4c0.4,0.3,0.8,1,1.5,0.5c0-0.4-0.3-0.7-0.7-0.8c0.2-0.4,0.3-0.8,0.1-1.2
	c0.9-0.5,1.7,0.2,2.2,0.3c0.6-0.3,1.2-0.2,1.7-0.1c0.4,0.1,1.5-0.6,1.9-0.7c-0.2,1,0.4,1.7,1,1.3c1-0.8,1.2,0.4,2,1.1
	c1.1,1-0.3,3.3,1.7,4.4c-0.1,0.9,1.2,3.2,1.6,3.2c3.6-0.4-1.2-8.5-0.6-10.7c0.4-1.5,1-2.1,2.2-2.8c1.1-0.6-0.1-3,1-3.4
	c1.1-0.4,2.8,0.2,3.9-0.2c0.6-0.2,1-0.6,0.3-1c0.2-0.2,1.5-1.1,1.6-1.1c-0.1-0.8-1.3-2.2-1.2-2.8c0.2,0.1,0.6-0.3,0.5-0.1
	c0.2,0.5,1.1-1.2,1.1-1.3c0.6-1.1-1-1.7-0.7-2.6c0.5,0.1,2,0.6,2.4-0.2c0.3-0.8-0.6-4.9-1.1-4.8c1.4-1.5,4.8,2.7,6.1,1.4
	c1.1,0.1,1.6,0.2,1.6-0.9c-0.4-0.5-1.1,0-1.5-0.7c0.2-1.2,1.1-1.7,2.2-2.1c0.5-0.2,0.5-0.9,0.8-1.4c0.7-0.1,1.2-0.5,1.9-0.8
	c1.8-0.7,0.6-0.5,1.2-0.8c0.1,0,3.1-0.3,2.9-0.5c0.3,0.5-2.1,1.2-2,2.3c0.2,1.7,2.2-0.4,3.2-0.6c0.9-1.9,3.2-0.9,5.1-1.3
	c0.2-0.6-0.5-0.3-0.4-0.8c0.9,0.2,1.6-0.2,1.9-0.6c0.3-0.4,0.1-0.8-0.8-0.7c0-0.4-0.9-4.1-2.2-2.5c-0.7,0.8,0.5,2.5,0.5,3.4
	c-0.5-0.2-1.1-0.2-1.7-0.1c-0.4,0-0.8,0-1.2,0c-0.4-0.6-0.6-0.5-1.2-0.8c-0.5-0.2-1-1.6-1.3-1.6c0.3-0.4,0.5-0.8,0.7-1.2
	c-0.1-0.1-1.6-0.3-2-0.4c1,0,3.7-0.6,2.3-1.8c-1-0.9-2.5,0.1-3.6,0.5c-1.1,0.3-2.1,0.9-3,1.6c-0.3,0.2-1.5,0.1-2,0.3
	c0-0.7,2-2,2.5-2.3c1-0.5,1.6-0.1,2.2-1.2c0.2-0.8,0.6-1.2,1.5-1c1.1-0.1,2.7-0.7,3.9-0.6c2,0.1,3.6,1,5.4,0.4
	c0.9-0.3,1.4-1.1,2-1.7c0.8,0,1.6-0.1,2.4-0.1c1.1-0.1,2-1,1.6-1.8c-0.3-0.8,0.1-3.3-1.9-2.2c-0.3-0.1-0.2-1.3-1.6-1.1
	c0.4-0.2,0.7-0.4,1.1-0.7c-0.4-0.8-3.9-1-4.8-0.7c-0.2-0.5,0.5-1.3-0.5-2.1c-0.5-0.4-2-0.3-1.9-1.3c0.9,0.9,2-0.6,0.1-1.2
	c-0.1-0.4,1.4-0.1-0.1-1c-0.3-0.2-1.4-0.9-1.2-1.2c0.4-0.8-2.8-3.7-3.6-0.5c-0.1,0.4-3.7,1.7-4,1.1c-0.4-1-0.7-0.4-1.1-0.3
	c-0.3,0.1-0.8-0.2-1.4-0.4c-0.2-0.5,0.9-0.3,0.6-1.7c-0.3-1.3-0.4-0.8,0.2-1.8c0.5-0.8-3.6-0.2-3.2-1.5c-1.1-0.6-2.1-1.7-3.4-1.2
	c-1,0.4-1.8,1.1-2.9,0.8c-0.8-0.2-1.8-1.2-2.5-0.5c-0.5,0.5-0.5,1.3,0.3,1.5c-0.4,0.5-0.7,0.9-1.1,1.5c0.3,0.2,0.6,0.2,0.9,0.1
	c-0.1,0.4,0,0.8,0.3,1.2c-0.2,0.3-0.3,0.9-0.6,1c-0.3,1.2-2.1,1.2-0.3,2.1c1.3,0.7,3.6,2.2,2.8,3.9c-0.6,1.2-4.3,2.1-5.7,2.3
	c-0.2,1.2,0.7,1.2,0.7,2.4c0,0.7,0.4,1.4,0.4,2.1c-0.1,1.5-0.7,0.8-1.4,1.5c-0.8,0.8-1.3-0.7-2.1-1.1c-1.1-0.5-1.4-1.3-1.2-2.4
	c0.1-1,0.4-2.8-0.7-3c-2-0.4-4.5,0.3-6.3-1c-0.9-0.6-1.5-1.8-2.8-2c-0.6-0.1-1.5,0.6-2,0.8c-0.4,0.1-1.1-0.2-1.3,0.3
	c0.4-0.6-0.2-3-1.5-2.9c-1.3,0.1-1.5-1.6-1.2-2.2c0.4-0.7,2.7-1.5,2.8-2.2c0-0.3,2.5-2.2,1.7-2.1c2.5-0.9,2-0.9-0.3-1.4
	c0.2-0.2,0.9-0.7,1.6-0.7c1.1,0.1,2.2,0.6,1.7-0.5c1.6,0.5,3.3-0.6,3.8-2.1c-0.4-0.1-3.6-0.2-3.4-0.8c1.3,0.5,2.7,0.9,3.9,0
	c1-0.7,1.7-1,0.5-1.4c1.1-0.3,2.5-0.4,3.7-0.3c-0.2-0.5-0.6-0.8-1.2-0.8c0.6-0.5,1.2,0.2,1.7,0.2c1,0.1,1.7-0.2,2.4-1
	c1.5-1.7-1.8-1-1.2-2.4c0.2-0.2,0.9-0.1,1.1,0c0.4,0.1,0.7,0.3,0.8-0.4c0.1-0.9-0.8-0.7-1.5-0.9c-1.2-0.3-5.1,0.8-2.6,1.2
	c-0.4,0.3-0.8,0.4-1.2,0.5c-0.3,0.6-0.6,1.1-1.1,1.6c-0.9,0.9-1.7,1.2-2.5,0c0.1-0.2,1.7-2.3-0.2-1.7c-0.8,0.3-1.2,1.1-1.9,1.5
	c0.3-0.5-0.4-1.2,0.3-1.5c-0.3-0.3-0.8-0.2-1.2,0c-0.3,0.1-0.5,0.2-0.7,0.2c-0.1-0.8,0.8-0.4,1.1-0.9c-0.4-0.7-1.3-0.2-1.1-1.1
	c0.2-0.9-1.8-0.2-2-0.1c-0.9,0.4-1.4,1.3-2.3,1.9c0.1,0.1,0.3,0.2,0.5,0.1c-0.1,0.4-1.2,1,0,1.1c0.5,0,1-0.1,1.5-0.2
	c0.4-0.1,0.8-0.2,1.3-0.2c0,0.2-1.8,0.9-1.8,0.9c0,0.4,0.3,0.3,0.6,0.2c0.2-0.1,0.3-0.1,0.4-0.1c-0.4,0.7-1.6,1-2.2,1.4
	c-1,0.7-0.1,0.7-0.5,1.4c-1.1,0.1-0.4-0.7-0.3-1.2c-0.7-0.2-2.7-0.2-2.5,0.9c-0.7,0.3-3.9,1.9-4.6,1.5c-1.6-0.9-3.8,1.4-4.8,2.6
	c0,0,0,0,0-0.1c-2.2-0.1-3.3,1.8-5.3,2.1c0.4-0.4,0.8-0.7,1.2-1.1c-0.8-0.6-4.3,2.4-4.9,3c-2.5,2.8-0.8-0.5-3.4-0.8
	c-0.4,0.3,0.5,0.6,0.4,1.1c-0.4,0-1.7,0.6-2.1,0.8c-0.5,0.2-1.6,0.5-2.3,1c-0.2,0.2-0.4,0.4-0.5,0.7c0,0-0.1,0.1-0.1,0.1
	c-3.5,4.4-6.5,9.1-9,14c1.1,0,2.2,0,2.5,0.3c-0.4,1.3,2.8,0.9,2.8,1.7c0.3-0.1-0.2,1.5-0.2,1.5c-0.2,0.6-0.4,1.2-0.5,1.7
	c0.7-0.2,0.2-1.3,0.8-1.6c0.1,0.2-0.1,2.2-0.1,2.3c0.2,1-0.8,3.8-0.5,4.2c0.2,0.3,1.3,1.6,1,1.9c-0.4,0.6-0.1,2.6-0.2,3.4
	c-0.2,1.1-0.5,2.2-0.6,3.3c-0.3,1.7-0.7,3.6-0.4,5.4c0.3,2.2,1,4.2,1.6,6.3c0.4,1.5,1.2,0.5,1.7,1.8c0.7,1.5,1.1,3.6,1.8,5.2
	c0.3,0.6,2.4,3.5,0.7,3.2c-0.1,1.8,2.5,1.8,2.6,3.4c0.2,1.9,1.7,2.4,2.2,4.2c1.4,0.1-0.1-2-0.1-2.4c-0.9,0-1.3-2.4-1.5-3.4
	c-0.8-0.4-1.3-2.2-1.7-2.9c-0.8-1.4-1.5-2.5-1.3-4.2c1.7,0.5,2.1,2.1,2.7,3.8c0.3,0.8,0.7,2.1,1.1,2.6c1,0.8,1.1,1.3,1.2,2.4
	c1.9,1.1,3.2,4.1,4.1,5.9c0.5,1.1-0.3,1.8,0.4,2.8c0.6,1,1.7,1.4,2.2,2.4c1.9,0.6,3.7,1.9,5.4,2.9c1,0.6,1.9,1.2,3,1.5
	c0.9,0.2,1.5-0.6,2.4-0.6c1.7,0,3.2,2.7,4.5,3.6c0.6,0,5,1.9,5,1.2c0.2,0,2.3,3.2,2.9,3.6c0.2,0.8-0.6,0.9,0.3,1.5
	c-0.1-0.1,0.1,0.1,0.5,0.3c0.9-0.4,1.8-0.7,2.7-1.1C102.8,159.6,102.4,158.9,102.6,158"/>
<path class="st2" d="M165.9,185.6c-0.4-1.5-2.9-0.1-3.9-0.8c-0.9-0.6-1.8-1.7-3-1.6c-1.5,0.1-2.5-0.2-3.9-0.5c-1-0.2-1.4,1-2.2,1
	c0.2-1.4-1.3-1.9-2.9-1.6c-0.5-0.7-1.6-0.6-2.5-0.1c0.1-0.2,0.2-0.5,0.2-0.8c-0.7-0.6-1.5,0.1-2.3,0c-0.7,0.7-1.4,1.4-2.7,1.5
	c0.5-1.5,2.2-1.9,3-3.2c0.4-0.7-1.1-1.5-1.3-2.1c-0.7-2-0.6-1.7-2.3-2.9c-1.1-0.7-2.6-1.2-3.9-1.3c-1.2-0.1-1.3,0.5-2.5,0.1
	c-0.7-0.3-2.3-0.8-3.3-0.7c0.4-2.3-2.3-2.8-3.7-2.6c0.3-0.4,0.6-0.8,1.1-1.1c-0.3-0.3-0.6-0.6-1.1-0.7c0.6-0.1,0.3-1.2,0.5-1.6
	c-1.1-0.2-1.7,1.6-2.4,0.8c0.2-0.3,0.9,0,0.8-0.5c-1-0.6-2.8-0.3-3.7,0.3c-1.2,0.8-2.3-0.7-3.6-0.5c-1.1,0.1-1.5,0.4-2-0.5
	c-0.4-0.7-1.1-0.8-1.9-0.7c-0.3-0.3-0.4-1.6-1.2-1.1c-0.4,0.3-0.5,0.9,0.2,1c-0.6,0.5-1.6,0.3-2.1,0.8c-0.3,0-0.6-0.9-0.1-1
	c2.1-0.5-0.7-1.2-1.2-1.9c-0.3-0.5-0.7-0.9-1.2-1.1c-1.7-0.7-4.1,0.1-5.7,0.3c-0.5-0.7-1.3-1.4-1.9-2.2c-0.9,0.4-1.8,0.7-2.7,1.1
	c0.4,0.2,0.8,0.4,0.7-0.1c0.5,1.2,1.6,0.3,1.6,1.8c0.2,0.5,1.4,0.7,1.7,0.7c0.3,0,0.6,0,0.9,0.1c0.5,0.2,0.9,0.5,1.3,0.8
	c0.7,0.5,0.7,0.4,1.7,0.4c-0.1-0.5-0.3-0.9-0.5-1.3c1.1,0,1.1-0.7,2.4-0.4c0,0.5,0.8,1.6,0.5,2c-1.1,0.3-2.3-0.1-3,0.8
	c-0.3,0.4-0.3,1.8-0.8,1.8c-0.6,0.1-1.2,0.7-1.3,1.4c-0.2-0.3-0.5-0.4-0.8-0.5c-0.5,0.4,0.7,0.7,0.3,1.1c-0.4,0.1-0.6,0.3-0.8,0.7
	c-0.1,0.7,0.9,1.4,0.9,2.1c0.1,0.8,0.5,2.7,0.1,3.3c-0.2,0.3-2,1.4-1.4,1.4c-0.9,0.1-0.2,1-1.2,1c-0.7-0.2-0.9,0.1-0.7,0.9
	c-0.1,0.6-1.8,2.9-0.5,3.3c0.1,0,1.2,0.2,1.3,0c0,1.2-1.3,1-1.8,1.8c-0.1,0.8,1.6,1.7,0.4,1.7c0.3,0.6,1.1,0.8,1.7,1.1
	c0.4,0.6,0.8,1.2,1.3,1.7c0.9,1.1,2,2.1,2.4,3.4c1.4,1,1.8,2.6,3,3.6c1,0.9,2.3,1.5,3.6,2c1.4,0.6,2.6,1.1,3.9,1.9
	c0.2,0.6,0.9,2.8,0.4,3.4c-0.2,0.2-0.3,4.3-0.1,4.3c-0.1,1-1-0.5-0.2,1.1c0.2,0.2,0.2,0.4,0.2,0.7c0,0.1-0.8,1.4-1.4,1.1
	c0.1,0.3,0.3,0.5,0.5,0.6c5.9,0.8,11.9,1,17.9,0.5c-0.5-0.2-0.5-0.7-1.4-0.6c2.2-0.4,4,0.7,6.1-0.3c0.5-0.2,1.2-1.1,1.8-1.5
	c0,0-0.1,0-0.1,0.1c1.2,0.1,3.9-2.1,4-3.1c0.2-2.4,3.8-2.7,4.9-4.4c2.5-0.3,3.8,0.6,5.5-1c1.4-1.2,1.8-2.5,2.8-3.9
	c0.6-0.9-1-2.9-0.4-4c1.2-0.3,3.1-0.5,3.6-1.6C163.6,190.4,166.6,188.1,165.9,185.6z"/>
<path class="st2" d="M70.7,72.4c1.2,0.1,1.1,0.7,2,1.5c0.2-0.3,3-3.5,3.3-3.2c-0.3,0.2-0.5,0.4-0.7,0.7c0.1-0.1,0.3-0.1,0.4,0
	c-0.4,0.3-0.7,0.6-0.9,1.1c0.8,0,2.2-0.6,2.7-0.8c1.2-0.6,2.3-1.4,3.4-2.2c0.9,0.1,1.7-1.1,2.7-1.1c1.2-0.1,2.6-0.6,3.3-1.6
	c-0.5-0.5-1,0.6-1.3,0.3c0.6-0.6,2.8-0.7,2.5-1.6c-0.9-0.3-1.8,0.5-2.6,0c0.6-0.5,0.3-1.1,0.3-1.7c-1.6-0.1-2,1.1-2.6,2.2
	c-0.5,0-0.1-0.7-0.3-0.7c-0.9,0.1-1.3,0.9-2,1.5c0,0.1-3.1,1.5-4.1,1.4c-1.2-0.1-1.3-0.8-2.6-0.7c-0.2,0-0.4,0-0.6,0.1
	c-0.6,0.5-1.1,1-1.6,1.5c0,0.1-0.1,0.3-0.2,0.6c-0.7,1.1-0.7,0.6-0.8,1.9C70.7,71.8,69.4,72.3,70.7,72.4z"/>
<path class="st2" d="M66.8,74c-0.3,0.3-0.6,0.7-0.9,1c0.7-0.3,1.4-0.5,1.7-0.8C67.5,74,67.2,73.9,66.8,74z"/>
<path class="st2" d="M206.1,106.5c0-0.9-0.1-1.7-0.4-2.2C205.3,104.9,205.6,106.1,206.1,106.5z"/>
<path class="st2" d="M192.5,83.6c-0.2-0.2,0-1,0.3-0.7c-1,1,2.4,2.6,2.3,3.9c-0.3-0.2-0.6-0.2-0.9,0c0.2,0.4,0.3,0.7,0.5,1.1
	c-0.2,0.1-0.4,0.1-0.7,0.1c0.1,1.1,1.4,0.9,1.8,1.7c-0.3-0.1-0.6-0.2-0.9-0.4c-0.7,2.4-0.8,0.6,1.1,1.8c0-0.2,0-0.4,0.1-0.5
	c1,0.4,1.6,0.9,2.8,1c0.1-0.1-0.1-1.6-0.1-1.8c-0.4-1.1-1.6-2.3-2.3-3.3c-0.7-1.1-1.6-2.1-2.4-3.2c-0.2-2-0.9-1.3-1.7-2.8
	c0.3,0,0.4-0.1,0.5-0.4c-0.6-0.4-1.1-0.7-1.7-1.1c0,0.3,0.1,0.6,0.3,0.9c-0.1,0-0.2-0.1-0.3-0.1C191.2,80.7,191.8,83.5,192.5,83.6z"
	/>
<path class="st2" d="M209.6,118.2c-0.5-0.9-1-1.7-1.4-1.8c-1-0.2,0.7-4.8-1.3-4.9c-0.5,0.5-1.8-0.1-2.5-0.2
	c-1.2-0.3-1.9,0.1-2.7,0.8c0.1,0.3-3.2,0.9-4-0.6c-0.5-0.9,1.3-0.9,1.7-0.8c1.5,0.1,1.3-1.2,1.9-2.1c0.4-0.6,0-0.8-0.3-1.5
	c0.3-0.6,0.5-1.2,0.7-1.8c2.1,0.2,0.3-2.1,1.2-2.6c0.4,0.4,0.9,0.8,1.5,1.1c0.2-0.4,0.4-0.8,0.8-1.1c1,1.4,1.3,3.1,2.1,4.6
	c0,0,0,0,0,0.1c-1.6-5.8-3.9-11.5-6.8-16.9c-0.3,0.3-0.6,0.9-0.5,1.5c-1-0.5-0.8,0.8-1.3,1.1c-0.5,0.3-0.6,0.1-0.8-0.2
	c-0.1-0.2-0.3-0.4-0.6-0.4c0.2,0.5,0.3,0.9,0.4,1.4c-0.9-0.7-1.1-0.6-2.2-0.8c-0.1,1.2,2.4,3.1,3.1,4.1c0.5,0.7,1.2,3.2,0.6,4
	c-1.2-0.9-5-2.3-6.1-1.3c-0.2,0.6,0.7,3.1,0.9,3.8c0.1,0.7-0.1,2.5-0.3,3.1c1.8,1-0.5,3.2,2.6,2.6c1.3,1.6,1.3,3.7-0.3,4.8
	c-1.4,1-0.8,1.8-1.6,2.8c-0.9,1.2,0.6,2.4-0.6,3.8c-0.8,0.9-2,1.4-2.4,2.4c-0.5,1.6-2,2.2-2,4c-1.5,0.7-1.1,1.9-2.1,2.9
	c-0.8,0.8-0.1,1.9-0.3,2.9c0.2,0,0.4,0,0.5,0.1c0.3,0.5,0.5,3,0.4,3.6c-0.1,0.9-0.3,3.2-0.9,3.9c-1.1,1.4,0.2,1.8-0.2,3.1
	c-0.3,1,0.3,2.4,1.6,2.2c-0.8,1.5,2.3,2.5,1.9,4.6c0.4,1.3,2.6,2.6,3.7,3.6c1.2,1,2,0.3,2.9-0.3c0.8-0.6,1.6-1.3,2.8-0.5
	c0.4,0.3,4-2.7,4.7-3.1c0.5,0.5,0.3,1.5,0.5,2.1c0.6-0.1,1.1-0.4,1.4-0.9c0.5,2.5-1.4,4.6-1.2,7c0,0.1,0,0.2,0,0.3
	C210,145.7,211.5,131.8,209.6,118.2"/>
<path class="st2" d="M189.3,86.4c1.3,2.2,5.2,1.8,3.2-1.1c1.1-0.1-1.3-2.8-2-2.6c-0.3,0.2-0.5,0.4-0.7,0.7c0.3,0,0.4,0.1,0.5,0.4
	c-0.5,0-0.8-0.4-1.3-0.4C188.7,84,190.9,86.6,189.3,86.4"/>
<path class="st2" d="M133.9,47.2c-0.7,0.1-1.5,0.1-2.2,0.1c-1.3,0-2.7,0-3.8,0.6c0.6,0,1.2,0.1,1.7,0.4c-0.1,0-0.4,0-0.6,0
	c-0.5,0-1.2-0.1-1.4,0.3c0.4,0.1,0.6,0.1,0.7,0c0.1,0,1.2,0.7,1,1.1c3.4,0.5,5.8-1.3,8.7,0.9c0,0.2-1.4,1.1-1.1,1.2
	c1-0.2,1.3-0.4,2-0.2c-0.2,0.1-0.4,0.1-0.5,0.3c0.5,0,0.9,0.2,1.3,0.5c0,0-1.4,0-1.2,0.1c0.3-0.1,0.5,0,0.7,0.1
	c-0.3,0-0.5,0.2-0.7,0.4c0.2,0,0.3,0,0.4,0.1c-0.2,0-0.4,0-0.6,0c-0.6,0.3,1.7,0.5,2.6,0.4c0.1-0.1,0.2-0.2,0.4-0.1
	c0.1,0.1-0.1,0.1-0.4,0.1c0,0,0,0.1,0,0.1c0.9,0.3,2.4,0.2,2.9,0.9c-0.3-0.1-0.2,0.1-0.2,0.2c0.1,0.2,0.2,0.3-0.8,0
	c-0.9-0.3-2.4-0.8-3.2-0.1c0.2,0.1,0.4,0.2,0.5,0.4c-0.8-0.1-1.3,1.8-1.3,1.8c0.6,0.6,3.9,0.3,4.5-0.9c-0.4-0.2-0.8-0.4-1.2-0.5
	c0.6,0.1,1.2,0.2,1.8,0.4c-0.2,0-0.3,0-0.4,0.1c0,0.3,0.3,0.2,0.5,0.2c0.1,0,0.3,0,0.3,0c0.5,1.6-2.2,1.2-3,1.7
	c0.7,0.1-0.5,0.6-0.6,0.9c-0.3,0.5-0.1,0.6,0.3,0.5c-0.1,0.1-0.3,0.2-0.4,0.2c0.5,0.5,1.6,0.1,2,0.5c-2.4,0-0.9,1.4,1,1.7
	c0,1-0.5,1.3,0.4,1.5c-0.8,0-0.7,0.4-0.3,0.9c0.4,0.5,0.9,0.9,0.9,0.9c0.2,0.7,0,0.3,0.6,0.8c0.2,0.2,1.2,0.2,1.4,0.4
	c-0.2,0.8-0.2,1.5,0,2.5c1.1,0.3,1.7-0.8,2.2,0c0.1,0.1,0.5,0.4,0.7,0.4l0,0c0,0,0,0,0,0c-0.9,0.8,1.7,0.8,2,0.9
	c0,0.4,0.2,0.6,0.6,0.6c0.5,0,0.5,0.2,0,0.5c1,0.1,1.8,0,2.8-0.3c-0.2,0.1-0.2,0.3-0.1,0.5c0.8,0.2,0.7-0.6,0.8-0.7
	c0.1,0,1.4,0.1,1.5,0.3c-0.4,0.1-0.6,0.3-0.8,0.7c0.7,0.1,1.3,0.2,2,0.4c-0.8,0.9,0.3,0.5,1.2,0.9c0.4-0.2,0.9-0.2,1.3-0.2
	c0.4,0,0.8,0,1.2-0.1c0.2-0.8,0-0.7-0.2-0.5c-0.2,0.2-0.1,0.1,0,0c0.1-0.1,0.3-0.3,0.6-0.6c-0.2-0.7-0.8-0.3-0.4-1.6
	c0.5-1.5-0.5-1.1-1.1-2.3c0.3,0,0.5,0,0.8-0.1c0-0.3-0.1-0.5-0.4-0.7c0.7-0.1,1.3,0.1,1.7-1.1c-0.5-0.3-0.9-0.6-1.3-0.9
	c0.3,0.1,0.6,0,0.9-0.1c-0.3-0.3-0.6-0.6-0.9-0.9c0.3,0.1,0.6,0,0.9-0.1c0-0.4-0.2-0.6-0.5-0.8c1.7,0.6,2.9,1.5,4.5,1.5
	c-0.1-0.2-0.2-2.3-0.2-2.6c0.3,0.3,0.7,0.4,1.2,0.4c0.3-0.9-0.4-1.7,0.4-2.4c0.6,0.2,1.4,0.6,2.1,0.3c0,0,1.3-0.1,1.9-0.4
	C160.2,52.3,147.1,48.1,133.9,47.2"/>
<path class="st2" d="M208.4,111.2c-0.1-0.1-0.1-0.1-0.2,0c0,0.6,0.3,1.1,0.6,1.6C208.6,112.3,208.5,111.7,208.4,111.2z"/>
<path class="st2" d="M206.8,109.4c-0.1-1.4-0.3-2.1-1.1-2.8c0.2,0.9,0.2,2.1,0.8,2.9C206.5,109.3,206.6,109.3,206.8,109.4z"/>
<path class="st2" d="M110.8,49.8c0.8-0.2,1.6-0.4,2.4-0.4C112.6,49.6,111.7,49.6,110.8,49.8c-0.5,0.1-1,0.3-1.5,0.3
	c-0.4,0.1-0.8,0.3-1.1,0.6c0.2-0.1,0.1,0.3,0,0.4c0.3,0,0.9-0.1,0.4-0.4c0.4-0.1,2.6-0.3,2.9,0c-0.7,0-4.6,0.3-4.7,1.3
	c0.7-0.1,2.7-0.6,3.3-0.1c-0.7,0.2-7,0.6-6.7,2.4c1.1,0,2.5-0.7,3.6-0.9c1.2-0.2,2.6-0.5,3.8-0.9c1.4-0.4,4.4,0.3,5.3-1.3
	c-1.4,0-3,0.7-4.3,0.3c1.1-0.3,2.3-0.2,3.3-0.4c0.8-0.2,0.9-0.7,1.7-0.7c0.7-0.1,2.8-0.6,3.1-1.4c-0.8-0.1-1.7,0.4-2.4,0.1
	c1.4-0.5,2.9-0.1,4.2-0.7c-0.3,0.1-0.6,0-0.8-0.1c0.9,0.1,5.9-1.1,8.4-1.3c-0.2,0-0.3,0-0.4,0c-2.4,0-4.7,0-7.1,0.2
	c-2.2,0.3-4.3,0.7-6.4,1.2c-2,0.5-5,0.6-6.7,1.8c0.2,0,0.4,0,0.6-0.1C109.8,50,110.3,49.9,110.8,49.8z"/>
<path class="st2" d="M107.9,50.5c0.2-0.1,0.3-0.1,0.4-0.3C108.2,50.2,107.6,50.4,107.9,50.5z"/>
<path class="st2" d="M84,62.3c4.6-1.8,6.4-3.4,4.7-3.3C87.5,59.1,84.6,61.2,84,62.3z"/>
<path class="st2" d="M100.2,53.6c0.1,0,0.2-0.1,0.3-0.1h0c0.1,0,0.1,0,0.2-0.1c1.3-0.4,3-0.8,3.9-0.8c0.9-0.7,2.3-1.2,3.2-1.6
	c-0.2,0.1-0.7-0.2-0.7-0.2c0-0.1,0.1-0.1,0.2-0.2c-0.1,0-0.3,0.1-0.5,0.2c-0.4,0-1.1,0.3-1.4,0.4c0,0,0,0,0.1,0c0,0-0.1,0.1-0.1,0.1
	l0.2-0.1c0.2,0-0.5,0.2-0.3,0.2c-0.2,0,0.4-0.2,0.3-0.2c-2.5,0.8-6.3,1.9-6.1,2.8C99.5,53.9,99.8,53.7,100.2,53.6z"/>
<path class="st2" d="M179.8,67.2c-0.1-0.5-1.3-1.5-1.8-1.7c-0.3-0.2-0.3-0.1-0.4,0c-0.1,0.1-0.2,0.2-0.9-0.1
	c-0.3-0.1-2.6-0.9-2.6-0.8c0.2,0.2,0.2,0.3,0.1,0.5c0-0.3-2.1-1.7-2.8-1.8c-0.2,0.3,0.5,0.4,0.3,0.5c-0.5-0.2-1.3-0.6-1.3,0.1
	c0.5,0.9,2.2,0.1,2.5,1.2c-0.1,0-0.4,0-0.6-0.1c-0.4-0.1-0.9-0.2-1,0.2c0.7,0.4,1.8,0.3,2.2,1c-0.4-0.1-0.6,0-0.7,0.4
	c0.8,0.2,8.3,3.1,8.2,1.7c0,0-0.1-0.3-0.4-0.6C180.5,67.4,180.2,67.1,179.8,67.2"/>
<path class="st2" d="M116.5,146.4c0-1.2-1.4-1.2-2.2-1.2c-0.1-0.3,0.4-0.4,0.1-0.7c-0.9-0.4-1.8-0.6-2.8-0.8
	c-0.2-0.7-0.9-0.9-1.5-1.1c-1.1-0.3-2.1-1.3-3.2-1.3c-1.4,0-2.5-0.6-4.1-0.2c-0.7,0.2-2.7,1.3-2.1,2.4c0.7,0.2,2.9-1.2,3.7-1.6
	c0.2,1.2,1.8,1,3,1.6c1.1,0.5,1.9,0,2.3,1c0.4,0.9,1.2,0.6,2,1.1c-0.3,0.5-0.9,0.3-0.8,1.1C112.8,146.4,114.6,146.6,116.5,146.4z"/>
<path class="st2" d="M110.8,149.5c0.1,0.1,2.6,0.6,2.5-0.1C112.7,148.2,108.5,148.2,110.8,149.5z"/>
<path class="st2" d="M118.1,149.3c0.5,0.1,1.1,0.2,1.7,0.1c0.3,0.5,0.7,0.7,1.2,0.8c0.3-2.6,4.6,0.3,4.6-1.6
	c-1.1-1.3-3.3-2.2-4.7-2.1c-0.7,0.1-3.4-0.6-3.6,0.3c0,0,1.7,1.8,1.6,1.7c-1,0.4-1.9-0.6-2.9-0.1
	C115.7,149.9,117.4,149.2,118.1,149.3z"/>
<path class="st2" d="M127.1,149.2c0.1,1.3,2.9,0.6,2.7-0.2C129.5,149,127.1,147.9,127.1,149.2z"/>
<path class="st2" d="M91,59.3c1.6,1.3,2.7-0.8,3.2-0.8C93.7,58.4,89.7,58.3,91,59.3z"/>
<path class="st2" d="M79.6,64.9c-0.5,0-1.9-0.3-2,0.7c1,0.8,4.4-0.3,4.1-1.7c-0.4-0.1-0.8-0.2-1.1-0.5c-0.7,0-1.4,0.2-2,0.5
	C78.3,63.8,79.4,64.8,79.6,64.9z"/>
<path class="st2" d="M117.6,62.2c-1.4-0.5-3.2-0.1-3.2,1.6C115.7,64.3,117.7,63.9,117.6,62.2z"/>
<path class="st2" d="M99.5,56.8c2.5-0.3,4.8-1.6,7.3-1.6c0.7,0,1.9-0.2,2.3-0.9c0.6,0.8,1.7,0.2,2.4,0.1c0.9-0.2,1.2-0.6,2.2-1.2
	c-2.2-0.7-4.9,0.1-7.1,0.9c-1,0.4-1.6,0.3-2.5,0.6c-0.6,0.2-2.3,0-2.8,0.5c0.3-0.5,1.1-0.3,1.4-0.8c-1.2,0.1-2.3,0.5-3.4,0.9
	c0,0.6,0.5,0.1,0.5,0.4C99.6,56.2,99.3,56.2,99.5,56.8z"/>
<path class="st2" d="M126.8,58.6c-0.6,0.1-1.3,0.4-1.9,0.3c0.5-0.1,1-0.3,1.4-0.5c-0.1-0.6-1.1-0.5-2.1-0.5
	c-0.8,0.1-2.2,0.8-2.3,0.4c0.8,0-1.1-2.1-1.8-0.7c-0.1-0.8-0.7-0.7-1.3-0.5c-0.3,0.1-0.6,0.2-0.9,0.1c0.5-0.1,0.8-0.3,1.2-0.7
	c-0.9-0.7-5.8-1.2-5.8,0.7c-0.6-0.4-1-0.2-1.4-0.1c-0.3,0.2-0.7,0.3-1.1,0.1c0.4-0.4,0.7-0.7,0.9-1.2c-1.4-1.4-3.9-0.2-5.3,0.7
	c0.3-0.1,0.5,0,0.7,0.1c-0.6,0-1.6,0-1.7,0.8c0.2,0.1,0.4,0.2,0.5,0.4c-0.4,0-0.7,0.2-0.8,0.5c0.2,0.4,1,0,1.1,0.5
	c-0.4,0.4-0.9,0.5-1.4,0.4c0.3,0,0.6-0.1,0.8-0.4c-0.4-0.7-1.2-0.7-1.3-1.4c0.6-0.7,1.6-0.9,2.2-1.6c-1.6,0.2-6.3,1.4-5.7,3.3
	c-0.5,0.1-0.8,0.3-0.9,0.8c0.3,0,0.7,0,1-0.1c0.5-0.1,1.1-0.1,1.6,0.1c-0.5,0.4-1.8,0-2,0.8c0.5,0.6,1.6,0.3,2.2,0.1
	c0.7-0.2,0.7-0.1,0.9,0c0.1,0.1,0.4,0.2,1.2,0.1c1.9-0.2,3.6-0.4,5.4-0.3c0.1-0.8,0.5-0.6,1.1-0.5c0.4,0.1,0.8,0.2,1.3,0
	c1.4-0.6-0.3-0.7-0.3-0.9c0.6-0.4,3.8,1.2,4.4,1.4c-0.5,0.2-0.9,0.3-1.4,0.3c-0.2,1.2,1.2,0.5,1.8,0.3c1.2-0.3,1,0.4,2.1,0.6
	c2.9,0.6,0.5,2.9-1.2,3.3c0,0.5,1.1,0.8,0.9,1.2c-1.5,0.1-2.6,0.4-4.1,0.4c-0.7,0-2.3,0.7-2.1,1.8c0.9,0.1,4.6-0.6,4.6-1.3
	c0-0.4,4,1.8,4.5,2.2c-0.3,0-0.5,0.2-0.5,0.5c1.1,0.9,2.8,0.7,3.7,2c1.6-0.2,3.1,0.3,4.6,0.4c0-2.1-1.5-2.1-4.2-2.7
	c1.7,0.4,4-0.1,4.3,0.1c0.8,0.5,0.7,1.4,1.6,1.4c0.1-0.2,0.1-1.4,0-1.4c0.2,0.1,0.3,0.1,0.5,0.1c0.2-1.2-0.7-1.2-1.3-2
	c0.2,0.1,0.4,0,0.4-0.3c-0.7,0-4.3-2.2-4.1-2.5c0.3,0.3,0.7,0.4,1.2,0.3c0.1-0.7-0.6-0.4-0.7-0.9c1.3-0.5,2.8-0.6,3.8,0.2
	c0.8,0.6,1.1,2.2,2.1,2.2c0.1-0.4-0.5-0.9-0.1-1.2c0.5,0,1.3-0.3,1.8-0.3c0.4-0.2-0.4-0.4,0-0.7c1,0.1,1.8-0.7,0.4-1.1
	c-1.1-0.4-1.2,0.1-1.8-0.6c-0.6,0-1.5,0.4-2.1,0c0.4,0.1,0.7,0,0.9-0.3c-0.9-1.5-4.5-1-6.1-2c0.2-0.2,0.4-0.2,0.7-0.1
	c0.1-0.3-0.7-0.5-0.4-0.7c0.7,0.3,1.4,0.3,2.1,0.3c0.1-0.6-0.4-0.6-0.9-0.6c-0.4,0-0.8,0-0.9-0.3C129.5,59.4,127.7,58.4,126.8,58.6"
	/>
<path class="st2" d="M105.3,70.7c0.5,0,4.1,2.1,4.1,0c-0.7-0.3-1.4-0.4-2.1-0.3c0.4-1.2-1.5-0.4-2.3-0.7c-1.9-0.8-0.2-0.5-1.5-0.7
	c0-0.5-0.2-0.8-0.7-0.9c-0.4,0.7-1,1.2-1.2,2c-0.4,1.4-0.9,0.9-1.5,2.2c0.7,0.1,1.4-0.6,2.1-0.4c-0.1,0.3-0.1,0.5,0,0.8
	c1.1,0,1.8-1.1,2.9-1.2C105.4,71.2,104.9,70.7,105.3,70.7z"/>
<path class="st2" d="M112.2,66.4c-0.5-0.2-1.3,0.4-1.7,0.1c0.7-0.3,1.2-0.7,1.7-1.2c-1.1,0-3.2,1-3.9,1.7c0.2,0,0.4,0,0.5,0.1
	c-0.7,0.2-2.2,1-2.6,1.5C107.3,69.3,112.3,68.6,112.2,66.4z"/>
<path class="st2" d="M96.1,55.6c1.2-0.2,2.1-0.6,2.9-1.2C97.9,54.7,96.9,55,96.1,55.6z"/>
<path class="st2" d="M93.1,65.1c-0.5,0-1.6-0.6-2.2-0.7c-0.4,0.4-1.7,1.4-1.8,1.8C90.5,66.2,92.1,66.6,93.1,65.1z"/>
<path class="st2" d="M107.2,50.7c0.1,0,0.2-0.1,0.3-0.1C107.4,50.6,107.3,50.6,107.2,50.7z"/>
<path class="st2" d="M96,57.3c0.7,0.4,3-0.9,2.8-1.1C97.9,56.7,96.8,56.6,96,57.3z"/>
<path class="st2" d="M95.1,59.6c0.9,0.5,1.9-0.2,4.5-2.4C100.7,56.3,96.6,58.3,95.1,59.6z"/>
<path class="st2" d="M95,56.2c-0.4-0.1-3.2,0.3-3.2,0.7C92.6,56.7,94.8,57.5,95,56.2z"/>
<path class="st2" d="M88.4,63c-0.2,0.1-0.4,0.3-0.5,0.5c1.1-0.1,3.1-1,3.3-2.2C89.5,61.1,87.7,62.9,88.4,63z"/>
<path class="st2" d="M144.8,91.8c-0.2,0-0.3,0-0.5,0c-1,0.2-1.6,1.1-2,2c-0.4,0.9-0.7,1.9-1.2,2.4c0,0-0.1,0.1-0.1,0.1
	c-0.4,0.3-0.4,0.7-0.1,1.1c-0.5,0.1-0.9,0.3-1.1,0.7c-0.1,0.2-0.1,0.3-0.1,0.4c0.1,0.3,0.4,0.5,0.9,0.5c0.1,0,0.3,0,0.5,0
	c0.1,0,0.3,0,0.4,0c0.1,0,0.3,0,0.4,0c0.1,0,0.1,0,0.1,0c0.1,0,0.2,0,0.4,0c0.3,0,0.7,0,1.1,0c0.5,0,0.9,0,1.4,0c0.3,0,0.6,0,0.8,0
	c0.3,0,0.4,0,0.5,0.1c-0.1,0-0.1,0.1-0.2,0.1c-0.4,0.2-0.8,0.5-1.1,1c0.2,0.1,0.4,0.2,0.6,0.2c0.4,0,0.8-0.3,1.1-0.6
	c0,0,0.1-0.1,0.1-0.1c0.3-0.2,0.6-0.5,1-0.5c0.1,0,0.1,0,0.2,0c-0.1,1.1-0.4,1.1,0.9,1.5c0.2,0.1,0.3,0.1,0.4,0.1
	c0.5,0,0.5-0.5,0.7-1.1c0.4-1.2-1.3-1-1.6-1.3c0-0.4,0.2-0.5,0.4-0.6c0.3-0.1,0.6-0.2,0.5-0.7c-0.1-0.1-0.2-0.1-0.3-0.1
	c-0.1,0-0.3,0.1-0.4,0.1c-0.1,0.1-0.3,0.1-0.4,0.1c0,0-0.1,0-0.1,0c0-0.6,1-1.4-0.2-1.7c-0.2,0-0.4-0.1-0.5-0.1
	c-0.2,0-0.4,0-0.6,0.1c-0.2,0-0.4,0.1-0.6,0.1c-0.3,0-0.7-0.1-1.1-0.5c1.5-0.4-0.4-0.5-1-0.5c-0.1,0-0.2,0-0.2,0
	c0.4-0.5,1.2-1.5,1.6-2.2c0.1-0.2,0.2-0.4,0.2-0.6C145.4,91.9,145.1,91.8,144.8,91.8"/>
</svg>
