<?xml version="1.0" encoding="utf-8"?>
<!-- Generator: Adobe Illustrator 21.1.0, SVG Export Plug-In . SVG Version: 6.00 Build 0)  -->
<svg version="1.1" id="Слой_1" xmlns="http://www.w3.org/2000/svg" xmlns:xlink="http://www.w3.org/1999/xlink" x="0px" y="0px"
	 viewBox="0 0 256.2 256.2" style="enable-background:new 0 0 256.2 256.2;" xml:space="preserve">
<style type="text/css">
	.st0{fill:#444A67;}
	.st1{fill:#D65D4F;}
</style>
<circle class="st0" cx="128.1" cy="128.1" r="128.1"/>
<g>
	<path class="st1" d="M87.5,102.8c0,0-13.4,4.4-22.6,13.2c-4.9,4.6-7.4,11.5-7,18.4c0.2,4.2,0.7,8.4,4.1,15.3c0,0,4.6,9.2,9.6,34.3
		c0,0,8.8,38.9,23.1,39.8c0,0,18.2,2,18.2-23.1c0,0-0.5-17.5-8.9-28.5c-3.5-4.6-5.6-10.2-5.7-16.1c0-0.1,0-0.2,0-0.3
		c0-3.4,1.3-6.7,3.7-9c4.4-4.2,12.4-12.5,16.8-19.8c0,0,5.4-9.6-7.5-21.1C111.3,106,101.2,97.8,87.5,102.8z"/>
	<ellipse class="st1" cx="58.4" cy="111.7" rx="4" ry="5.4"/>
	<ellipse class="st1" cx="68.2" cy="102.2" rx="4.6" ry="6.7"/>
	<ellipse class="st1" cx="79.2" cy="94.2" rx="5.1" ry="6.6"/>
	<ellipse class="st1" cx="93.9" cy="89.1" rx="5.6" ry="7.8"/>
	<ellipse class="st1" cx="112.7" cy="88.4" rx="8.5" ry="13.5"/>
</g>
<g>
	<path class="st1" d="M163.5,62.4c0,0,13.4,4.4,22.6,13.2c4.9,4.6,7.4,11.5,7,18.4c-0.2,4.2-0.7,8.4-4.1,15.3c0,0-4.6,9.2-9.6,34.3
		c0,0-8.8,38.9-23.1,39.8c0,0-18.2,2-18.2-23.1c0,0,0.5-17.5,8.9-28.5c3.5-4.6,5.6-10.2,5.7-16.1c0-0.1,0-0.2,0-0.3
		c0-3.4-1.3-6.7-3.7-9c-4.4-4.2-12.4-12.5-16.8-19.8c0,0-5.4-9.6,7.5-21.1C139.7,65.6,149.8,57.3,163.5,62.4z"/>
	<ellipse class="st1" cx="192.5" cy="71.3" rx="4" ry="5.4"/>
	<ellipse class="st1" cx="182.8" cy="61.7" rx="4.6" ry="6.7"/>
	<ellipse class="st1" cx="171.7" cy="53.7" rx="5.1" ry="6.6"/>
	<ellipse class="st1" cx="157.1" cy="48.7" rx="5.6" ry="7.8"/>
	<ellipse class="st1" cx="138.3" cy="48" rx="8.5" ry="13.5"/>
</g>
</svg>
