<?xml version="1.0" encoding="utf-8"?>
<!-- Generator: Adobe Illustrator 21.1.0, SVG Export Plug-In . SVG Version: 6.00 Build 0)  -->
<svg version="1.1" id="Слой_1" xmlns="http://www.w3.org/2000/svg" xmlns:xlink="http://www.w3.org/1999/xlink" x="0px" y="0px"
	 viewBox="0 0 256.2 256.2" style="enable-background:new 0 0 256.2 256.2;" xml:space="preserve">
<style type="text/css">
	.st0{fill:#FFFFFF;}
	.st1{fill:#9BD1EA;}
</style>
<circle class="st0" cx="129.1" cy="128.1" r="128.1"/>
<path class="st1" d="M228.8,130.1c0.8-1.7,5.7-1.7,6.7-3.3c1.7-2.9,0.1-11.4-0.9-13.6c-1.6-3.6-5.3,1.2-17-3.4
	c-32-12.7-75.2,1.9-75.2,1.9c-3.1-1.3-7.6-1.9-12.2-1.7c-4.6,0.1-9.1,0.9-12.3,2.3c0,0-42.8-12.7-75.2,1.5
	c-11.7,5.2-15.3,0.6-17,4.2c-1.1,2.3-2.9,10.9-1.2,13.7c0.9,1.6,5.8,1.4,6.6,3c4.8,9.9-0.5,31,23.2,38c23.7,7,51.1-1.4,58.8-19.7
	c5.5-15,5.4-28.6,15.9-29c0.4,0,0.7,0,1-0.1c0.3,0,0.7,0,1,0c10.5-0.1,10.1,13.6,15.3,28.3c7.3,17.9,34.5,25.1,58.4,17
	C228.7,161.1,223.8,140.2,228.8,130.1z M75.5,169.3c-2.9,0.1-5.8,0-8.6-0.2c-2.5-0.2-5-0.6-7.3-1.1c-1.1-0.3-2.2-0.6-3.2-0.9
	c-3.9-1.3-7.4-3.3-10-6.2c-1.6-1.7-2.8-4-3.7-6.4c-1.7-4.7-2.4-10.2-2.3-14.7c0.1-6.9,0.7-12.4,5.3-17.6c4-4.5,10-6.7,16.7-7.8
	c4.4-0.7,9.2-1,13.8-1.1c2.1,0,4.3,0,6.5,0.1c1.1,0,2.2,0.1,3.3,0.2c2.3,0.2,4.5,0.5,6.7,0.9c8.9,1.6,16.9,4.9,20.4,10.9
	c1.4,2.3-0.1,10.3-0.7,13.7C109.8,155.8,95.1,168.9,75.5,169.3z M183.6,166.9c-3.3,0.1-6.5-0.2-9.5-0.8c-2.4-0.5-4.7-1.2-6.8-2.1
	c-0.9-0.4-1.8-0.8-2.6-1.2c-5.8-3-10.5-7.5-13.5-13c-2-3.5-3.3-7.4-3.9-11.5c-0.5-3.4-1.8-11.3-0.4-13.7c4-6.7,13-10.4,22.7-12.3
	c4.9-0.9,9.9-1.4,14.6-1.5c2,0,4-0.1,5.9,0c1.1,0,2.3,0.1,3.4,0.1c2.3,0.1,4.6,0.4,6.8,0.7c5.7,1,10.8,2.9,14.2,6.7
	c4.5,5,5,10.4,4.9,17.4c-0.1,7-1.8,16.2-6.5,21.5C206.5,164.6,195.2,166.7,183.6,166.9z"/>
</svg>
