<?xml version="1.0" encoding="utf-8"?>
<!-- Generator: Adobe Illustrator 21.1.0, SVG Export Plug-In . SVG Version: 6.00 Build 0)  -->
<svg version="1.1" id="Слой_1" xmlns="http://www.w3.org/2000/svg" xmlns:xlink="http://www.w3.org/1999/xlink" x="0px" y="0px"
	 viewBox="0 0 256.2 256.2" style="enable-background:new 0 0 256.2 256.2;" xml:space="preserve">
<style type="text/css">
	.st0{fill:#FFFFFF;}
	.st1{opacity:0.5;}
	.st2{clip-path:url(#SVGID_2_);}
</style>
<circle class="st0" cx="128.1" cy="128.1" r="128.1"/>
<g class="st1">
	<g>
		<defs>
			<rect id="SVGID_1_" x="65.7" y="51.7" width="127.2" height="164.5"/>
		</defs>
		<clipPath id="SVGID_2_">
			<use xlink:href="#SVGID_1_"  style="overflow:visible;"/>
		</clipPath>
		<path class="st2" d="M178.3,86.8h-6.2c-8,0-14.5,6.2-14.5,13.8v1l18.4-12.4c0,0,0,0,0.1,0c0,0,0,0,0,0l-24.3,21.1l-24.9,10
			c-3.7,1.5-5.4,5.5-3.8,9c1.2,2.6,3.8,4.2,6.7,4.2c0.9,0,1.9-0.2,2.8-0.6l26-10.5c0.8-0.3,1.5-0.7,2.1-1.3l25.2-21.9c0,0,0,0,0-0.1
			c0,0,0,0,0,0.1l-22.2,25c-0.6,0.7-1.4,1.3-2.3,1.6l-1,0.4l-2.6,1.1l0,80.3c0,4.5,3.9,8.2,8.7,8.2c2,0,3.8-0.7,5.2-1.7
			c-1.1-1.9-1.8-4.1-1.8-6.5v-49h5.8v49c0,4.5,3.9,8.2,8.7,8.2c4.8,0,8.7-3.7,8.7-8.2c0,0,0.1-69.1,0.1-107.1
			C192.9,93,186.3,86.8,178.3,86.8L178.3,86.8z M178.3,86.8"/>
	</g>
	<path d="M175.2,83.7c9.3,0,16.9-7.2,16.9-16c0-8.8-7.6-16-16.9-16c-9.3,0-16.9,7.2-16.9,16C158.3,76.6,165.9,83.7,175.2,83.7
		L175.2,83.7z M175.2,83.7"/>
	<path d="M83.3,83.7c9.3,0,16.9-7.2,16.9-16c0-8.8-7.6-16-16.9-16c-9.3,0-16.9,7.2-16.9,16C66.4,76.6,74,83.7,83.3,83.7L83.3,83.7z
		 M83.3,83.7"/>
	<path d="M104.6,109.3L85.3,91.7l15.7,11.5v-2.6c0-7.6-6.5-13.8-14.5-13.8h-6.2c-8,0-14.5,6.2-14.5,13.8c0,39.2,0.1,107.1,0.1,107.1
		c0,4.5,3.9,8.2,8.7,8.2c4.8,0,8.7-3.7,8.7-8.2v-49h5.8v49c0,2.4-0.7,4.6-1.8,6.5c1.5,1.1,3.3,1.7,5.2,1.7c4.8,0,8.7-3.7,8.7-8.2
		l0-80.4l-5.8-3.9l-1.8-1.2c-0.1-0.1-0.2-0.2-0.3-0.3l-17.8-20.3l20,18.2c0.5,0.4,1,0.8,1.5,1.1l23.8,12.6c-0.6-0.7-1.1-1.5-1.5-2.4
		c-2-4.5-0.6-9.4,3-12.5L104.6,109.3z M104.6,109.3"/>
</g>
</svg>
