<?xml version="1.0" encoding="utf-8"?>
<!-- Generator: Adobe Illustrator 21.1.0, SVG Export Plug-In . SVG Version: 6.00 Build 0)  -->
<svg version="1.1" id="Слой_1" xmlns="http://www.w3.org/2000/svg" xmlns:xlink="http://www.w3.org/1999/xlink" x="0px" y="0px"
	 viewBox="0 0 256.2 256.2" style="enable-background:new 0 0 256.2 256.2;" xml:space="preserve">
<style type="text/css">
	.st0{fill:#FFFFFF;}
	.st1{fill:#FDFEFF;}
	.st2{fill:#333E4D;}
	.st3{fill:#D86560;}
	.st4{fill:#848484;}
	.st5{fill:#EDB35A;}
</style>
<circle class="st0" cx="128.1" cy="128.1" r="128.1"/>
<rect x="59.1" y="84.1" class="st1" width="141.9" height="87.1"/>
<path class="st2" d="M207.3,88.6c0-4.1-3.6-7.5-8-7.5H61.7c-4.4,0-8,3.4-8,7.5v78.2c0,4.1,3.6,7.5,8,7.5h137.5c4.4,0,8-3.4,8-7.5
	V88.6z M199.2,161.4c0,4.1-3.6,7.5-8,7.5H69.6c-4.4,0-8-3.4-8-7.5V94.5c0-4.1,3.6-7.5,8-7.5h121.5c4.4,0,8,3.4,8,7.5V161.4z"/>
<path class="st2" d="M213.4,176.8c-1.1,0-78,0-84.1,0c0,0-0.1,0-0.4,0c-6.1,0-82.9,0-84.1,0c-1.2,0,4.7,13.7,11.5,13.7
	c6.4,0,67.2,0,72.6,0c0.2,0,0.4,0,0.4,0c5.4,0,66.2,0,72.6,0C208.6,190.5,214.6,176.8,213.4,176.8z"/>
<path class="st1" d="M143.5,185.9h-26c-1.3,0-2.4-1.1-2.4-2.4v0c0-1.3,1.1-2.4,2.4-2.4h26c1.3,0,2.4,1.1,2.4,2.4v0
	C145.9,184.8,144.8,185.9,143.5,185.9z"/>
<path class="st3" d="M162.1,100.9h-1.9c-0.3-1-0.7-2-1.3-2.8l0,0l1.4-1.3c0.3-0.3,0.3-0.8,0-1l-2.4-2.2c-0.3-0.3-0.8-0.3-1.1,0
	l-1.4,1.3c-1-0.5-2-0.9-3-1.2v0v-1.8c0-0.4-0.4-0.7-0.8-0.7h-3.4c-0.4,0-0.7,0.3-0.7,0.7v1.8c-1.1,0.2-2.1,0.7-3,1.2l0,0l-1.4-1.3
	c-0.3-0.3-0.8-0.3-1.1,0l-2.4,2.2c-0.3,0.3-0.3,0.7,0,1l1.4,1.3c-0.6,0.9-1,1.9-1.2,2.8h0h-1.9c-0.4,0-0.8,0.3-0.8,0.7v3.2
	c0,0.4,0.3,0.7,0.8,0.7h1.9c0.3,1,0.7,2,1.3,2.8l0,0l-1.4,1.3c-0.3,0.3-0.3,0.8,0,1l2.4,2.2c0.3,0.3,0.8,0.3,1.1,0l1.4-1.3
	c1,0.5,2,0.9,3.1,1.2v0v1.8c0,0.4,0.3,0.7,0.8,0.7h3.4c0.4,0,0.8-0.3,0.8-0.7v-1.8c1.1-0.2,2.1-0.7,3-1.2l0,0l1.4,1.3
	c0.3,0.3,0.8,0.3,1.1,0l2.4-2.2c0.3-0.3,0.3-0.7,0-1l-1.4-1.3c0.6-0.9,1-1.9,1.2-2.8h0h1.9c0.4,0,0.8-0.3,0.8-0.7v-3.2
	C162.9,101.2,162.5,100.9,162.1,100.9z M147.9,107.4c0,0-0.1,0-0.1-0.1c-0.1-0.1-0.3-0.1-0.4-0.2c-0.1,0-0.1-0.1-0.2-0.1
	c-0.1,0-0.1-0.1-0.2-0.1c0,0-0.1,0-0.1-0.1c-0.2-0.1-0.3-0.3-0.5-0.4c-0.2-0.2-0.3-0.3-0.4-0.5c-0.1-0.1-0.1-0.1-0.2-0.2
	c-0.1-0.2-0.3-0.4-0.4-0.7c-0.3-0.6-0.4-1.2-0.4-1.8c0-1.3,0.6-2.5,1.6-3.4c0.1-0.1,0.2-0.1,0.3-0.2c0,0,0.1,0,0.1-0.1
	c0.1,0,0.1-0.1,0.2-0.1c0.2-0.1,0.4-0.2,0.6-0.3c0.1,0,0.1-0.1,0.2-0.1c0.6-0.2,1.2-0.4,1.9-0.4c0.8,0,1.6,0.2,2.2,0.5
	c0.1,0,0.1,0.1,0.2,0.1c0.1,0.1,0.2,0.1,0.3,0.2c0.1,0,0.1,0.1,0.2,0.1c0,0,0.1,0,0.1,0.1c0.1,0,0.1,0.1,0.2,0.1
	c0.1,0.1,0.2,0.1,0.3,0.2c0.1,0.1,0.1,0.1,0.2,0.2c0.1,0.1,0.3,0.3,0.4,0.4c0,0.1,0.1,0.1,0.1,0.2c0,0.1,0.1,0.1,0.1,0.2
	c0.1,0.1,0.1,0.2,0.2,0.3c0.3,0.6,0.5,1.3,0.5,2c0,0.4-0.1,0.8-0.2,1.1c0,0.1,0,0.1-0.1,0.2c0,0.1-0.1,0.2-0.1,0.3
	c0,0.1-0.1,0.1-0.1,0.2c0,0,0,0.1-0.1,0.1c0,0.1-0.1,0.2-0.1,0.3c0,0.1-0.1,0.1-0.1,0.2c0,0-0.1,0.1-0.1,0.1c0,0-0.1,0.1-0.1,0.1
	c0,0,0,0.1-0.1,0.1c0,0.1-0.1,0.1-0.1,0.2c0,0-0.1,0.1-0.1,0.1c-0.1,0.1-0.1,0.1-0.2,0.2c0,0-0.1,0.1-0.1,0.1
	c-0.1,0.1-0.2,0.2-0.4,0.3c0,0-0.1,0-0.1,0.1c-0.1,0-0.1,0.1-0.2,0.1c-0.1,0-0.1,0.1-0.2,0.1c0,0-0.1,0-0.1,0.1
	c-0.1,0-0.1,0.1-0.2,0.1c-0.7,0.3-1.4,0.5-2.2,0.5c-0.6,0-1.3-0.1-1.8-0.3C148,107.5,147.9,107.4,147.9,107.4z"/>
<rect x="68.8" y="92.8" class="st4" width="62.5" height="6.8"/>
<rect x="68.8" y="102.2" class="st4" width="62.5" height="6.8"/>
<rect x="59.5" y="148.5" transform="matrix(-1.836970e-16 1 -1 -1.836970e-16 224.768 79.509)" class="st4" width="26.2" height="7.3"/>
<rect x="70.6" y="148.5" transform="matrix(-1.836970e-16 1 -1 -1.836970e-16 235.7828 68.4943)" class="st4" width="26.2" height="7.3"/>
<rect x="81.6" y="148.5" transform="matrix(-1.836970e-16 1 -1 -1.836970e-16 246.7975 57.4795)" class="st4" width="26.2" height="7.3"/>
<rect x="92.6" y="148.5" transform="matrix(-1.836970e-16 1 -1 -1.836970e-16 257.8123 46.4647)" class="st4" width="26.2" height="7.3"/>
<rect x="103.6" y="148.5" transform="matrix(-1.836970e-16 1 -1 -1.836970e-16 268.8271 35.4499)" class="st4" width="26.2" height="7.3"/>
<rect x="114.6" y="148.5" transform="matrix(-1.836970e-16 1 -1 -1.836970e-16 279.8418 24.4352)" class="st4" width="26.2" height="7.3"/>
<rect x="168.7" y="90.2" transform="matrix(-1.836970e-16 1 -1 -1.836970e-16 284.0641 -77.6236)" class="st4" width="24.3" height="26"/>
<rect x="69" y="111.6" class="st5" width="28.9" height="25"/>
<rect x="102.5" y="111.6" class="st5" width="28.9" height="25"/>
<rect x="136.9" y="122.2" class="st4" width="57" height="4.6"/>
<rect x="136.9" y="129.8" class="st4" width="57" height="4.6"/>
<rect x="136.9" y="137.4" class="st4" width="57" height="4.6"/>
<rect x="136.9" y="145.5" class="st4" width="57" height="19.7"/>
</svg>
