<?xml version="1.0" encoding="utf-8"?>
<!-- Generator: Adobe Illustrator 21.1.0, SVG Export Plug-In . SVG Version: 6.00 Build 0)  -->
<svg version="1.1" id="Слой_1" xmlns="http://www.w3.org/2000/svg" xmlns:xlink="http://www.w3.org/1999/xlink" x="0px" y="0px"
	 viewBox="0 0 256.2 256.2" style="enable-background:new 0 0 256.2 256.2;" xml:space="preserve">
<style type="text/css">
	.st0{fill:#444A67;}
	.st1{fill:#F0D2B3;}
	.st2{fill:#D3C84C;}
</style>
<circle class="st0" cx="128.1" cy="128.1" r="128.1"/>
<path class="st1" d="M194.6,125.8c-0.8,0.5-1.7,1-2.6,1.2c-1,0.3-1.3,1.9-0.5,2.7c1.4,1.3,2.2,3.1,2.6,5c0.6,3.5-0.7,6.3-3.3,8.5
	c-1,0.9-2.2,1.7-3.5,2.2c-1.4,0.6-1.6,2.4-0.5,3.3c2.5,2.2,3.3,5.2,1.9,8.5c-1.1,2.6-2.8,4.8-5.4,6.2c-0.3,0.2-0.7,0.3-1.1,0.4
	c-0.9,0.3-1.3,0.7-1.3,1.6c-0.1,0.7,0.1,1.3,0.7,1.8c1.4,1.2,2.4,2.7,2.6,4.5c0.2,1.4-0.1,2.8-0.7,4.1c-0.9,2-2.3,3.5-3.9,4.9
	c-0.8,0.6-2.8,1.6-4.3,2.3c-0.8,0.4-3.4,0.9-4.2,1.1c-37.7,7.7-64.1-2.3-67.5-3.5c-0.7-0.3-3.1-1.8-3.7-1.8c-0.1,0-0.9-0.2-0.9-0.3
	v-56.4c1.4-1,2.8-2,4.2-3c0.1-0.1,0.3-0.2,0.4-0.3c0,0,0.1-0.1,0.1-0.1c7.5-9.4,12.3-19.4,17.9-30c3.7-7.1,4.7-22.3,4.6-28
	c0-2.3,1.7-6,6.2-6c1.1,0,3.5,0.1,4.9,0.6c1.7,0.6,3.1,2.8,4.6,5.7c2,3.9,3.2,8,4.4,12.2c0.4,1.6,0.8,3.2,1,4.8
	c0.2,1.2,0.2,2.4,0.1,3.6c-0.1,1.4-0.2,2.7-0.3,4.1c-0.3,2.7-0.6,5.3-1.1,8c-0.5,2.9-1,5.7-1.6,8.5c0,0,0,0.1,0,0.1
	c0,0.2,0,0.4-0.1,0.7c-0.9,3.7,2.8,5.8,5,6.7c0.6,0.2,3,0.5,3.6,0.5c12,0,32.2-0.1,34.7-0.1c1.6,0,3.3,0,4.9,0
	c2.7,0.1,5.6,1.9,6.5,5.4C200,119.4,198.2,123.6,194.6,125.8z"/>
<path class="st2" d="M99.2,182.2c0,2.9-2.3,5.3-5.2,5.3H74.7c-2.9,0-5.2-2.4-5.2-5.3v-64.5c0-2.9,2.3-5.3,5.2-5.3H94
	c2.9,0,5.2,2.4,5.2,5.3V182.2z"/>
</svg>
