<?xml version="1.0" encoding="utf-8"?>
<!-- Generator: Adobe Illustrator 21.1.0, SVG Export Plug-In . SVG Version: 6.00 Build 0)  -->
<svg version="1.1" id="Слой_1" xmlns="http://www.w3.org/2000/svg" xmlns:xlink="http://www.w3.org/1999/xlink" x="0px" y="0px"
	 viewBox="0 0 595.3 595.3" style="enable-background:new 0 0 595.3 595.3;" xml:space="preserve">
<style type="text/css">
	.st0{fill-rule:evenodd;clip-rule:evenodd;fill:none;}
	.st1{fill:#FFFFFF;}
	.st2{font-family:'Arial-BoldMT';}
	.st3{font-size:40.0136px;}
	.st4{fill-rule:evenodd;clip-rule:evenodd;fill:#FFFFFF;}
	.st5{font-size:32.6037px;}
</style>
<rect x="73.1" y="254" class="st0" width="449.4" height="89.6"/>
<text transform="matrix(1 0 0 1 80.6466 282.6377)"><tspan x="0" y="0" class="st1 st2 st3">ОБРАЗОВАТЕЛЬНЫЙ</tspan><tspan x="143.6" y="48" class="st1 st2 st3"> ЦЕНТР</tspan></text>
<path class="st4" d="M298.5,62.4c0.4-3,3.4-9,5.2-11.3c0.6-0.7,1.3-1.7,1.9-2.5c0.8-0.9,1.3-1.2,2.1-2c3-3.2,5.6-4.3,9.4-6.6
	c5.5-3.2,15.2-5.3,21.9-5l0.1,14.5c4.1,0.5,5.5,1.4,9.1,2.6c3.8,1.2,10.3,6.1,13.3,8.8c0,0,0.1,0.1,0.2,0.2c0,0,0.1,0.1,0.2,0.2
	c8.3,7.6,6.6,8.3,6.9,17.2l4.6,0.2c0.4,3.6,0.1,42.8,0.1,49.9c0,19.8,2.6,16.5-9.5,16.5h-65.5c-22.8,0-47.8-0.3-70.5,0
	c-4.8,0.1-3.1,0.1-3.8-0.6c-1-0.9-0.6-0.8-0.6-3.7V82.3c0-1.3-0.2-2.6,0.4-3.7l4.3-0.2c0.2-5.9-0.9-7.9,1.9-11.9
	c1.1-1.4,2.1-2.6,3.2-3.9l1.4-1.4c0,0,0.1-0.1,0.2-0.2l4.6-4c0.1,0,0.2-0.1,0.2-0.1l8.2-4.7c0.9-0.4,1.5-0.4,2.7-0.9
	c5.3-2.4,12.8-3.3,18.8-2.9c1.6,0.2,1.3,0.4,3.3,0.6c3.1,0.3,5.5,1.1,8.4,2.2l4.6,2l11.6,8.4C298.3,62.4,297.3,61.9,298.5,62.4
	L298.5,62.4z M238.5,128.3c1.5-0.2,4.1-2.2,5.7-3.1c6.5-3.8,13.7-5.5,21.6-5.5c5.8,0,6.9,0.2,11.8,1.5c0.6,0.2,1.2,0.3,1.7,0.4
	l10.6,5.1c0.6,0.4,0.7,0.5,1.3,0.8l1.9,0.7c0-3.2,0.3-54.8-0.1-56.3l-1.2-1.8c-1.6-2.1-4.3-4.7-6.6-6.1l-5.9-3.5
	c-9.1-4.2-21.6-3.8-30.3,1.4l-5.7,4.3c0,0-0.1,0.1-0.2,0.2l-3.3,3.5c-1.4,1.6-1.4,2.4-1.4,4.7C238.7,92.3,237.9,110.6,238.5,128.3
	L238.5,128.3z M303.9,118c1.7-0.2,5.2-3,8.3-4.4c3.4-1.5,6.2-2.4,10.3-2.9c1.7-0.2,1.5-0.5,3.6-0.5c1.6,0,3.1,0,4.7,0l0-67.4
	c-1.9,0-2.4,0.2-4.2,0.7c-0.1,0-0.2,0-0.3,0.1l-0.7,0.3c-4.7,1.8-5.9,2.3-9.9,5.1c-2.2,1.6-4.2,3.7-5.8,5.8c-3,3.8-6.1,8.4-6.1,13.5
	C303.9,84.6,303.4,101.6,303.9,118L303.9,118z M339,118c-15.1,0.8-17.1-0.9-29,5.2l-2.6,1.9c-0.1,0-0.1,0.1-0.2,0.2l-2.1,1.4
	c-0.6,0.5-0.9,0.9-1,1.7c0.3-0.1,1.9-1,2.4-1.4l2.7-1.8c8.2-5.1,19.9-6.6,30.1-4.7c6,1.1,8.8,2.4,13.4,5c1.2,0.7,1.7,1.1,2.8,1.7
	c1.5,0.9,1.6,1.3,2.7,1.6c0.6-6.1,0.1-35,0.1-43.6c0-3.7,0-7.3,0-11c0-2.6-0.1-2.5-1.5-4.2c-1.8-2.2-6-5.6-8.5-7.2
	c-0.1,0-0.3-0.2-0.4-0.3c-0.1,0-0.1-0.1-0.2-0.2c-1.8-1.1-6.9-3.5-8.8-3.5L339,118z M252,132.4c1.9,0,26.2,0.5,27.6-0.3
	c-0.2-1.1,0.6-0.3-3.1-1.8c-4.7-1.8-14.2-2.4-18.7-0.9C255.1,130.4,252.6,130.9,252,132.4L252,132.4z M316.7,132.4
	c1.8,0,26.2,0.4,27.7-0.3c-0.3-1.1,0.7-0.5-2.6-1.6c-7.2-2.5-15.3-2.5-22.3,0.2C318.1,131.2,317.3,131.2,316.7,132.4L316.7,132.4z"
	/>
<g>
	<g>
		<g>
			<path class="st1" d="M54.9,512.2"/>
		</g>
	</g>
	<g>
		<path class="st4" d="M448.8,119.3c-8.4,0.6-16.9,1.3-25.3,1.9c6.4,4.3,12.8,8.6,19.2,12.9c8.4-0.6,16.9-1.3,25.3-1.9
			C461.6,127.9,455.2,123.6,448.8,119.3L448.8,119.3z M450.2,117.2c-2.6-8.1-5.2-16.1-7.8-24.2c6.4,4.3,12.8,8.6,19.2,12.9
			c2.6,8.1,5.2,16.1,7.8,24.2C463,125.8,456.6,121.5,450.2,117.2L450.2,117.2z M472.5,139.5c-8.4-0.6-16.9-1.1-25.3-1.7
			c5.7,5.2,11.4,10.4,17.2,15.5c8.4,0.6,16.9,1.1,25.3,1.7C483.9,149.8,478.2,144.6,472.5,139.5L472.5,139.5z M474.2,137.6
			c-1.4-8.3-2.8-16.7-4.2-25c5.7,5.2,11.4,10.4,17.2,15.5c1.4,8.3,2.8,16.7,4.2,25C485.6,148,479.9,142.8,474.2,137.6L474.2,137.6z
			 M493.5,162.5c-8.3-1.8-16.5-3.5-24.8-5.3c4.9,5.9,9.8,11.9,14.8,17.8c8.3,1.8,16.5,3.5,24.8,5.3
			C503.3,174.4,498.4,168.4,493.5,162.5L493.5,162.5z M495.4,160.9c-0.2-8.5-0.4-16.9-0.6-25.4c4.9,5.9,9.8,11.9,14.8,17.8
			c0.2,8.5,0.4,16.9,0.6,25.4C505.2,172.8,500.3,166.8,495.4,160.9L495.4,160.9z M511.4,187.9c-7.9-2.9-15.9-5.9-23.8-8.8
			c4,6.6,8,13.2,12.1,19.8c7.9,3,15.9,5.9,23.8,8.8C519.4,201.1,515.4,194.5,511.4,187.9L511.4,187.9z M513.5,186.6
			c1-8.4,2-16.8,3-25.2c4,6.6,8,13.2,12,19.8c-1,8.4-2,16.8-3,25.2C521.5,199.8,517.5,193.2,513.5,186.6L513.5,186.6z M525.7,215.4
			c-7.6-3.7-15.2-7.4-22.8-11.1c3.4,6.9,6.7,13.9,10.1,20.8c7.6,3.7,15.2,7.4,22.8,11.1C532.4,229.3,529.1,222.4,525.7,215.4
			L525.7,215.4z M528,214.3c1.8-8.3,3.7-16.5,5.5-24.8c3.4,6.9,6.7,13.9,10.1,20.8c-1.8,8.3-3.7,16.5-5.5,24.8
			C534.7,228.2,531.3,221.3,528,214.3L528,214.3z M536.5,244.6c-7-4.8-14-9.6-20.9-14.4c2.3,7.4,4.6,14.7,6.9,22.1
			c7,4.8,14,9.6,20.9,14.4C541.1,259.4,538.8,252,536.5,244.6L536.5,244.6z M538.9,243.9c3-7.9,6.1-15.8,9.1-23.7
			c2.3,7.4,4.6,14.7,6.9,22.1c-3,7.9-6.1,15.8-9.1,23.7C543.5,258.6,541.2,251.3,538.9,243.9L538.9,243.9z M543.5,274.9
			c-6.5-5.5-12.9-10.9-19.4-16.4c1.5,7.6,3.1,15.1,4.6,22.7c6.5,5.5,12.9,10.9,19.4,16.4C546.5,290,545,282.4,543.5,274.9
			L543.5,274.9z M545.9,274.4c3.8-7.6,7.6-15.1,11.4-22.7c1.5,7.6,3.1,15.1,4.6,22.7c-3.8,7.6-7.6,15.1-11.4,22.7
			C549,289.5,547.4,281.9,545.9,274.4L545.9,274.4z M546.4,305.9c-5.6-6.4-11.1-12.8-16.7-19.1c0.4,7.7,0.8,15.4,1.1,23.1
			c5.6,6.4,11.1,12.8,16.7,19.1C547.2,321.3,546.8,313.6,546.4,305.9L546.4,305.9z M548.9,305.7c4.9-6.9,9.8-13.8,14.7-20.7
			c0.4,7.7,0.8,15.4,1.1,23.1c-4.9,6.9-9.8,13.8-14.7,20.7C549.7,321.2,549.3,313.5,548.9,305.7L548.9,305.7z M545.5,336.9
			c-4.9-6.9-9.8-13.8-14.7-20.7c-0.4,7.7-0.8,15.4-1.2,23.1c4.9,6.9,9.8,13.8,14.7,20.7C544.7,352.3,545.1,344.6,545.5,336.9
			L545.5,336.9z M548,337c5.6-6.4,11.1-12.7,16.7-19.1c-0.4,7.7-0.8,15.4-1.2,23.1c-5.6,6.4-11.2,12.7-16.7,19.1
			C547.2,352.4,547.6,344.7,548,337L548,337z M540.6,367.6c-3.8-7.6-7.6-15.1-11.4-22.7c-1.6,7.6-3.1,15.1-4.7,22.7
			c3.8,7.6,7.6,15.1,11.4,22.7C537.5,382.7,539.1,375.2,540.6,367.6L540.6,367.6z M543.1,368.1c6.5-5.5,12.9-10.9,19.4-16.4
			c-1.6,7.6-3.1,15.1-4.7,22.7c-6.5,5.5-12.9,10.9-19.4,16.4C539.9,383.3,541.5,375.7,543.1,368.1L543.1,368.1z M531.9,397.5
			c-2.6-8-5.3-16.1-7.9-24.1c-2.7,7.2-5.3,14.5-8,21.7c2.6,8,5.2,16.1,7.9,24.1C526.5,412,529.2,404.8,531.9,397.5L531.9,397.5z
			 M534.2,398.4c7.2-4.4,14.4-8.9,21.6-13.3c-2.7,7.2-5.3,14.5-8,21.7c-7.2,4.4-14.4,8.9-21.6,13.3
			C528.9,412.9,531.5,405.6,534.2,398.4L534.2,398.4z M519.3,425.9c-1.8-8.3-3.6-16.5-5.5-24.8c-3.4,6.9-6.7,13.9-10.1,20.8
			c1.8,8.3,3.6,16.5,5.5,24.8C512.6,439.8,515.9,432.8,519.3,425.9L519.3,425.9z M521.5,426.9c7.6-3.7,15.2-7.4,22.8-11.1
			c-3.4,6.9-6.7,13.9-10.1,20.8c-7.6,3.7-15.2,7.4-22.8,11.1C514.8,440.8,518.2,433.9,521.5,426.9L521.5,426.9z M503.2,452.5
			c-0.6-8.4-1.2-16.9-1.8-25.3c-4.3,6.4-8.7,12.8-13,19.2c0.6,8.4,1.2,16.9,1.8,25.3C494.5,465.3,498.8,458.9,503.2,452.5
			L503.2,452.5z M505.2,453.9c8.1-2.6,16.1-5.1,24.2-7.7c-4.3,6.4-8.7,12.8-13,19.2c-8.1,2.6-16.1,5.1-24.2,7.7
			C496.6,466.7,500.9,460.3,505.2,453.9L505.2,453.9z M483.9,476.8c0.2-8.5,0.4-16.9,0.6-25.4c-4.9,5.9-9.8,11.9-14.8,17.8
			c-0.2,8.5-0.4,16.9-0.6,25.4C474.1,488.7,479,482.7,483.9,476.8L483.9,476.8z M485.8,478.4c8.3-1.8,16.5-3.6,24.8-5.3
			c-4.9,5.9-9.8,11.9-14.8,17.8c-8.3,1.8-16.5,3.6-24.8,5.3C476,490.3,480.9,484.3,485.8,478.4L485.8,478.4z M461.5,498.4
			c1.4-8.3,2.8-16.7,4.2-25c-5.7,5.2-11.4,10.4-17.2,15.5c-1.4,8.3-2.8,16.7-4.2,25C450.1,508.8,455.8,503.6,461.5,498.4
			L461.5,498.4z M463.2,500.3c8.4-0.6,16.9-1.2,25.3-1.7c-5.7,5.2-11.4,10.4-17.2,15.5c-8.4,0.6-16.9,1.2-25.3,1.7
			C451.8,510.6,457.5,505.5,463.2,500.3L463.2,500.3z M436.6,517.1c2.6-8.1,5.2-16.1,7.8-24.2c-6.4,4.3-12.8,8.6-19.2,12.9
			c-2.6,8.1-5.2,16.1-7.8,24.2C423.8,525.7,430.2,521.4,436.6,517.1L436.6,517.1z M438,519.2c8.4,0.6,16.9,1.3,25.3,1.9
			c-6.4,4.3-12.8,8.6-19.2,12.9c-8.4-0.6-16.9-1.3-25.3-1.9C425.2,527.8,431.6,523.5,438,519.2L438,519.2z M409.7,532.4
			c3.4-7.8,6.7-15.5,10.1-23.3c-6.8,3.7-13.6,7.3-20.4,11c-3.4,7.8-6.7,15.5-10.1,23.3C396.1,539.8,402.9,536.1,409.7,532.4
			L409.7,532.4z M410.9,534.6c8.3,1.5,16.7,2.9,25,4.4c-6.8,3.7-13.6,7.3-20.4,11c-8.3-1.5-16.7-2.9-25-4.4
			C397.3,542,404.1,538.3,410.9,534.6L410.9,534.6z M380.8,544.1c4.5-7.2,8.9-14.4,13.4-21.6c-7.3,2.6-14.5,5.3-21.8,7.9
			c-4.5,7.2-8.9,14.4-13.4,21.6C366.3,549.4,373.5,546.8,380.8,544.1L380.8,544.1z M381.7,546.5c8,2.7,16.1,5.3,24.1,8
			c-7.3,2.6-14.5,5.3-21.8,7.9c-8-2.7-16.1-5.3-24.1-8C367.1,551.7,374.4,549.1,381.7,546.5L381.7,546.5z M422.7,110.9l-17-20
			l25.5,6.1l17,20L422.7,110.9L422.7,110.9z"/>
		<path class="st4" d="M148,119.3c8.4,0.6,16.9,1.3,25.3,1.9c-6.4,4.3-12.8,8.6-19.2,12.9c-8.4-0.6-16.9-1.3-25.3-1.9
			C135.2,127.9,141.6,123.6,148,119.3L148,119.3z M146.7,117.2c2.6-8.1,5.2-16.1,7.8-24.2c-6.4,4.3-12.8,8.6-19.2,12.9
			c-2.6,8.1-5.2,16.1-7.8,24.2C133.8,125.8,140.3,121.5,146.7,117.2L146.7,117.2z M124.3,139.5c8.4-0.6,16.9-1.1,25.3-1.7
			c-5.7,5.2-11.4,10.4-17.2,15.5c-8.4,0.6-16.9,1.1-25.3,1.7C112.9,149.8,118.6,144.6,124.3,139.5L124.3,139.5z M122.7,137.6
			c1.4-8.3,2.8-16.7,4.2-25c-5.7,5.2-11.4,10.4-17.2,15.5c-1.4,8.3-2.8,16.7-4.2,25C111.2,148,117,142.8,122.7,137.6L122.7,137.6z
			 M103.4,162.5c8.3-1.8,16.5-3.5,24.8-5.3c-4.9,5.9-9.8,11.9-14.8,17.8c-8.3,1.8-16.5,3.5-24.8,5.3
			C93.5,174.4,98.5,168.4,103.4,162.5L103.4,162.5z M101.5,160.9c0.2-8.5,0.4-16.9,0.6-25.4c-4.9,5.9-9.8,11.9-14.8,17.8
			c-0.2,8.5-0.4,16.9-0.6,25.4C91.6,172.8,96.5,166.8,101.5,160.9L101.5,160.9z M85.4,187.9c7.9-2.9,15.9-5.9,23.8-8.8
			c-4,6.6-8,13.2-12.1,19.8c-7.9,3-15.9,5.9-23.8,8.8C77.4,201.1,81.4,194.5,85.4,187.9L85.4,187.9z M83.3,186.6
			c-1-8.4-2-16.8-3-25.2c-4,6.6-8,13.2-12,19.8c1,8.4,2,16.8,3,25.2C75.3,199.8,79.3,193.2,83.3,186.6L83.3,186.6z M71.1,215.4
			c7.6-3.7,15.2-7.4,22.8-11.1c-3.4,6.9-6.7,13.9-10.1,20.8c-7.6,3.7-15.2,7.4-22.8,11.1C64.4,229.3,67.8,222.4,71.1,215.4
			L71.1,215.4z M68.9,214.3c-1.8-8.3-3.7-16.5-5.5-24.8c-3.4,6.9-6.7,13.9-10.1,20.8c1.8,8.3,3.7,16.5,5.5,24.8
			C62.2,228.2,65.5,221.3,68.9,214.3L68.9,214.3z M60.3,244.6c7-4.8,14-9.6,20.9-14.4c-2.3,7.4-4.6,14.7-6.9,22.1
			c-7,4.8-14,9.6-20.9,14.4C55.7,259.4,58,252,60.3,244.6L60.3,244.6z M57.9,243.9c-3-7.9-6.1-15.8-9.1-23.7
			c-2.3,7.4-4.6,14.7-6.9,22.1c3,7.9,6.1,15.8,9.1,23.7C53.3,258.6,55.6,251.3,57.9,243.9L57.9,243.9z M53.4,274.9
			c6.5-5.5,12.9-10.9,19.4-16.4c-1.5,7.6-3.1,15.1-4.6,22.7c-6.5,5.5-12.9,10.9-19.4,16.4C50.3,290,51.8,282.4,53.4,274.9
			L53.4,274.9z M50.9,274.4c-3.8-7.6-7.6-15.1-11.4-22.7c-1.5,7.6-3.1,15.1-4.6,22.7c3.8,7.6,7.6,15.1,11.4,22.7
			C47.8,289.5,49.4,281.9,50.9,274.4L50.9,274.4z M50.4,305.9c5.6-6.4,11.1-12.8,16.7-19.1c-0.4,7.7-0.8,15.4-1.1,23.1
			c-5.6,6.4-11.1,12.8-16.7,19.1C49.6,321.3,50,313.6,50.4,305.9L50.4,305.9z M47.9,305.7c-4.9-6.9-9.8-13.8-14.7-20.7
			c-0.4,7.7-0.8,15.4-1.1,23.1c4.9,6.9,9.8,13.8,14.7,20.7C47.1,321.2,47.5,313.5,47.9,305.7L47.9,305.7z M51.3,336.9
			c4.9-6.9,9.8-13.8,14.7-20.7c0.4,7.7,0.8,15.4,1.2,23.1c-4.9,6.9-9.8,13.8-14.7,20.7C52.1,352.3,51.7,344.6,51.3,336.9L51.3,336.9
			z M48.8,337c-5.6-6.4-11.1-12.7-16.7-19.1c0.4,7.7,0.8,15.4,1.2,23.1c5.6,6.4,11.2,12.7,16.7,19.1C49.6,352.4,49.2,344.7,48.8,337
			L48.8,337z M56.2,367.6c3.8-7.6,7.6-15.1,11.4-22.7c1.6,7.6,3.1,15.1,4.7,22.7c-3.8,7.6-7.6,15.1-11.4,22.7
			C59.3,382.7,57.8,375.2,56.2,367.6L56.2,367.6z M53.8,368.1c-6.5-5.5-12.9-10.9-19.4-16.4c1.6,7.6,3.1,15.1,4.7,22.7
			c6.5,5.5,12.9,10.9,19.4,16.4C56.9,383.3,55.3,375.7,53.8,368.1L53.8,368.1z M65,397.5c2.6-8,5.3-16.1,7.9-24.1
			c2.7,7.2,5.3,14.5,8,21.7c-2.6,8-5.2,16.1-7.9,24.1C70.3,412,67.6,404.8,65,397.5L65,397.5z M62.6,398.4
			c-7.2-4.4-14.4-8.9-21.6-13.3c2.7,7.2,5.3,14.5,8,21.7c7.2,4.4,14.4,8.9,21.6,13.3C67.9,412.9,65.3,405.6,62.6,398.4L62.6,398.4z
			 M77.5,425.9c1.8-8.3,3.6-16.5,5.5-24.8c3.4,6.9,6.7,13.9,10.1,20.8c-1.8,8.3-3.6,16.5-5.5,24.8C84.3,439.8,80.9,432.8,77.5,425.9
			L77.5,425.9z M75.3,426.9c-7.6-3.7-15.2-7.4-22.8-11.1c3.4,6.9,6.7,13.9,10.1,20.8c7.6,3.7,15.2,7.4,22.8,11.1
			C82,440.8,78.7,433.9,75.3,426.9L75.3,426.9z M93.7,452.5c0.6-8.4,1.2-16.9,1.8-25.3c4.3,6.4,8.7,12.8,13,19.2
			c-0.6,8.4-1.2,16.9-1.8,25.3C102.3,465.3,98,458.9,93.7,452.5L93.7,452.5z M91.6,453.9c-8.1-2.6-16.1-5.1-24.2-7.7
			c4.3,6.4,8.7,12.8,13,19.2c8.1,2.6,16.1,5.1,24.2,7.7C100.3,466.7,95.9,460.3,91.6,453.9L91.6,453.9z M112.9,476.8
			c-0.2-8.5-0.4-16.9-0.6-25.4c4.9,5.9,9.8,11.9,14.8,17.8c0.2,8.5,0.4,16.9,0.6,25.4C122.8,488.7,117.9,482.7,112.9,476.8
			L112.9,476.8z M111,478.4c-8.3-1.8-16.5-3.6-24.8-5.3c4.9,5.9,9.8,11.9,14.8,17.8c8.3,1.8,16.5,3.6,24.8,5.3
			C120.9,490.3,115.9,484.3,111,478.4L111,478.4z M135.3,498.4c-1.4-8.3-2.8-16.7-4.2-25c5.7,5.2,11.4,10.4,17.2,15.5
			c1.4,8.3,2.8,16.7,4.2,25C146.7,508.8,141,503.6,135.3,498.4L135.3,498.4z M133.6,500.3c-8.4-0.6-16.9-1.2-25.3-1.7
			c5.7,5.2,11.4,10.4,17.2,15.5c8.4,0.6,16.9,1.2,25.3,1.7C145.1,510.6,139.4,505.5,133.6,500.3L133.6,500.3z M160.2,517.1
			c-2.6-8.1-5.2-16.1-7.8-24.2c6.4,4.3,12.8,8.6,19.2,12.9c2.6,8.1,5.2,16.1,7.8,24.2C173,525.7,166.6,521.4,160.2,517.1
			L160.2,517.1z M158.8,519.2c-8.4,0.6-16.9,1.3-25.3,1.9c6.4,4.3,12.8,8.6,19.2,12.9c8.4-0.6,16.9-1.3,25.3-1.9
			C171.6,527.8,165.2,523.5,158.8,519.2L158.8,519.2z M187.2,532.4c-3.4-7.8-6.7-15.5-10.1-23.3c6.8,3.7,13.6,7.3,20.4,11
			c3.4,7.8,6.7,15.5,10.1,23.3C200.7,539.8,194,536.1,187.2,532.4L187.2,532.4z M186,534.6c-8.3,1.5-16.7,2.9-25,4.4
			c6.8,3.7,13.6,7.3,20.4,11c8.3-1.5,16.7-2.9,25-4.4C199.6,542,192.8,538.3,186,534.6L186,534.6z M216,544.1
			c-4.5-7.2-8.9-14.4-13.4-21.6c7.3,2.6,14.5,5.3,21.8,7.9c4.5,7.2,8.9,14.4,13.4,21.6C230.5,549.4,223.3,546.8,216,544.1L216,544.1
			z M215.2,546.5c-8,2.7-16.1,5.3-24.1,8c7.3,2.6,14.5,5.3,21.8,7.9c8-2.7,16.1-5.3,24.1-8C229.7,551.7,222.4,549.1,215.2,546.5
			L215.2,546.5z M174.1,110.9l17-20L165.5,97l-17,20L174.1,110.9L174.1,110.9z"/>
	</g>
</g>
<rect x="72.7" y="368.6" class="st0" width="449.4" height="113.9"/>
<text transform="matrix(1 0 0 1 86.6471 391.9746)"><tspan x="0" y="0" class="st1 st2 st5">ФИЗИЧЕСКОЙ КУЛЬТУРЫ </tspan><tspan x="39.4" y="39.1" class="st1 st2 st5">СПОРТА И ФИТНЕСА</tspan></text>
<rect x="86.2" y="346.5" class="st4" width="424.4" height="7.4"/>
<rect x="127.7" y="447.3" class="st4" width="347.9" height="7.4"/>
<circle class="st4" cx="298.7" cy="559.4" r="19.5"/>
</svg>
