<?xml version="1.0" encoding="utf-8"?>
<!-- Generator: Adobe Illustrator 21.1.0, SVG Export Plug-In . SVG Version: 6.00 Build 0)  -->
<svg version="1.1" id="Слой_1" xmlns="http://www.w3.org/2000/svg" xmlns:xlink="http://www.w3.org/1999/xlink" x="0px" y="0px"
	 viewBox="0 0 256.2 256.2" style="enable-background:new 0 0 256.2 256.2;" xml:space="preserve">
<style type="text/css">
	.st0{fill:#444A67;}
	.st1{fill:#FFFFFF;}
	.st2{fill:#DB7665;}
	.st3{fill:#D9B89D;}
	.st4{fill:#CEAC93;}
	.st5{fill:#FEF5DB;}
	.st6{opacity:0.48;fill:#737373;}
	.st7{fill:#D86963;}
	.st8{opacity:0.27;fill:#FFFFFF;}
	.st9{fill:#46A2CE;}
	.st10{fill:#97BFC7;}
</style>
<circle class="st0" cx="128.1" cy="128.1" r="128.1"/>
<path class="st1" d="M170.8,172.6c1.9,2.4,1.2,6.2-1.7,8.5l0,0c-2.8,2.3-6.7,2.2-8.6-0.2l-12.8-15.8c-1.7-1.2,9.5-9.5,10.3-8.3
	L170.8,172.6z"/>
<path class="st2" d="M174.8,169.1L174.8,169.1c-0.6-0.7-1.5-0.9-2-0.4l-17.2,13.9c-0.6,0.5-0.6,1.4-0.1,2l3.2,3.9c0,0,0,0,0,0
	l22.9,28.3c5.8,7.2,14.9,9.5,20.2,5.2c5.3-4.3,4.9-13.6-0.9-20.8L174.8,169.1L174.8,169.1z"/>
<polygon class="st1" points="85.4,126.2 82.9,134.7 65.1,134.7 72.1,97.3 72.2,96.6 72.3,96.7 "/>
<path class="st3" d="M139.5,91l-11-4.1c-8.3-2.7-6.5-7.5-6.5-7.5h-8.5h-0.1h-8.5c0,0,1.8,4.8-6.5,7.5l-11,4.1l26.1-0.3L139.5,91z"/>
<path class="st4" d="M113.4,81.8l-12.6,10.4L89.4,89l16.2-4.2l-1.2-2.6c0,0,1-0.7,0.6-2.6C104.9,79.7,108.8,81.9,113.4,81.8z"/>
<rect x="87.3" y="91" class="st5" width="57.1" height="41.6"/>
<path class="st6" d="M103.2,83.2c0.1,0,8.4,8.4,8.4,8.4L99,98.9l-2.9-10.7L103.2,83.2z"/>
<path class="st6" d="M123.1,82.9c-0.1,0-8.4,8.4-8.4,8.4l12.6,7.3l2.9-10.7L123.1,82.9z"/>
<path class="st7" d="M116.7,96c-0.1,0.3-0.8,0.5-1.4,0.5h-4.2c-0.6,0-1.2-0.2-1.4-0.5l-2.4-4.6c-0.5-0.9,0.2-1.7,1.5-1.7h8.7
	c1.3,0,1.9,0.8,1.5,1.7L116.7,96z"/>
<polygon class="st7" points="119.5,134.7 106.9,134.7 107,134 107.1,132.7 107.3,129.1 107.4,128.7 107.4,128.3 109.7,96.1 
	109.7,96.1 116.7,96.1 116.7,96.1 119.1,129.3 119.1,129.9 119.2,130.9 119.3,132.8 "/>
<path class="st5" d="M105,81.2c0.1,0,8.4,8.4,8.4,8.4l-12.6,7.3l-2.9-10.7L105,81.2z"/>
<path class="st5" d="M121.9,81.2c-0.1,0-8.5,8.4-8.5,8.4l12.8,7.3l2.6-10.7L121.9,81.2z"/>
<path class="st1" d="M134.8,87.5c-0.1,0-0.2-0.1-0.3-0.1c-2-0.6-4-1-5.7-1.2c-0.3,0-0.6-0.1-0.9-0.1c-0.1,0-0.2,0-0.3,0l-0.1,0.4
	l-0.8,4.3l0,0.1l-1,5.5l-0.2,0.9l-6.1,33.4l-0.1,0.5l-0.2,1.4l-0.3,1.9h0.9l0,0.5l0.1-0.5h29.2c1.6-12.9,3.4-24.9,5.8-37.2
	c0-0.2,0.1-0.5,0.1-0.7c0,0,0-0.1,0-0.1C153.4,95.2,143.5,90,134.8,87.5z M107.8,131.4l-0.4-2.3l-5.8-31.6l-0.2-0.9l-0.8-4.3
	l-0.2-1.2l0-0.1l-0.8-4.4l0-0.1l-0.1-0.3c-0.1,0-0.3,0-0.4,0c-0.4,0-0.8,0.1-1.2,0.1c-1.9,0.2-3.9,0.7-6,1.3
	c-8.6,2.5-18.2,7.5-19.6,9c0,0,0,0,0,0c0,0.2,0.1,0.6,0.1,0.8c2.4,12.3,4.2,24.3,5.8,37.2h30.2l-0.3-1.9L107.8,131.4z"/>
<path class="st8" d="M139.1,112.4l-10,20.2l-0.8,1.7h-8.7l0.3-1.7l3.7-20l2.8-14.5l1.3-7l0-0.1l0.4-2.2l0.2-1.3c0,0,0,0,0.1,0
	c0.7,0.2,1.3,0.3,1.8,0.5c2.1,0.6,3,1,4.7,1.6c0.3,0.1,0.6,0.2,0.9,0.3l0.1,1.2l0,0l1.3,16.6l-2.8,1l-2.2,0.8l5.3,2.2L139.1,112.4z"
	/>
<path class="st9" d="M138.1,110.2l-0.7,1.4L127,132.8l-0.9,1.9h-6.6l-0.1,0.5l0-0.5h-1.3l0.3-1.9l0.6-3.4l6.1-31.9l0.2-0.9l1-5.5
	l0-0.1l0.8-4.4l0.1-0.6l0.1-0.6c0,0,0.1,0,0.1,0c3,0.9,5.5,1.7,6.8,2c0.1,0,0.2,0.1,0.3,0.1l0.1,1.8l0,0.1l0.1,1.5l0,0.1l1.2,14.5
	l-5.1,1.8l3.2,1.4L138.1,110.2z"/>
<path class="st8" d="M107.1,134.3h-8.7l-0.8-1.7l-10-20.2l1.7-0.7l5.2-2.2l-2.3-0.8l-2.7-1L90.7,91l0,0l0.1-1.2
	c0.2-0.1,0.4-0.1,0.5-0.2c0.1,0,0.2-0.1,0.3-0.1c1.8-0.7,2.7-1.1,5-1.7c0.4-0.1,0.9-0.2,1.5-0.4c0,0,0.1,0,0.1,0l0.3,1.5l0.4,2
	l0,0.1l0.1,0.8l1.2,6.3l2.7,14.4l3.7,20l0.2,1.2L107.1,134.3z"/>
<path class="st9" d="M108.2,132.8l0.3,1.9h-8l-0.8-1.9l-10.3-21.1l-0.7-1.5l3.6-1.6l3.3-1.4l-5.1-1.8L91.6,91l0,0l0.1-1.3l0-0.2
	l0-0.1l0.1-1l0.1-0.8c2.8-1,3.4-1.4,7.4-2.4c0,0,0,0,0,0l0.1,0.7l0.1,0.5l0,0.1l0.8,4.4l0,0.1l0.2,1.2l0.8,4.2l0.2,0.9l2.4,12.9
	l3.3,18.1L108.2,132.8z"/>
<polygon class="st1" points="161.7,134.7 144,134.7 143.4,132.8 141.5,126.3 144.4,119.7 154.7,96.7 154.7,96.6 154.8,97.5 "/>
<polygon class="st10" points="119.6,134.4 119.5,134.8 119.5,134.4 "/>
<g>
	<path class="st1" d="M162.4,73.6c-21.8-27-61.5-31.2-88.5-9.4c-27,21.9-31.2,61.5-9.4,88.5c21.9,27,61.5,31.2,88.5,9.4
		C180.1,140.2,184.3,100.6,162.4,73.6z M113.5,165.1c-28.7,0-52-23.3-52-52c0-28.7,23.3-52,52-52c28.7,0,52,23.3,52,52
		C165.5,141.8,142.2,165.1,113.5,165.1z"/>
</g>
</svg>
