<?xml version="1.0" encoding="utf-8"?>
<!-- Generator: Adobe Illustrator 21.1.0, SVG Export Plug-In . SVG Version: 6.00 Build 0)  -->
<svg version="1.1" id="Слой_1" xmlns="http://www.w3.org/2000/svg" xmlns:xlink="http://www.w3.org/1999/xlink" x="0px" y="0px"
	 viewBox="0 0 256.2 256.2" style="enable-background:new 0 0 256.2 256.2;" xml:space="preserve">
<style type="text/css">
	.st0{fill:#444A67;}
	.st1{fill:#CBCACB;}
	.st2{fill:#9BD1EA;}
	.st3{fill:#848484;}
	.st4{fill:#60AEC3;}
	.st5{fill:#D65D4F;}
</style>
<circle class="st0" cx="128.1" cy="128.1" r="128.1"/>
<path class="st1" d="M100.2,59.9L62.8,70.5c-3.4,1-6.2,5.7-6.2,10.5v122.7c0,4.9,2.8,7.8,6.2,6.5l37.3-10.4l6.2-2v-12V66.7v-8.5
	L100.2,59.9z"/>
<path class="st2" d="M100.8,67.1l-33.2,9.4c-3,0.9-5.5,5.1-5.5,9.4V195c0,4.3,2.5,6.9,5.5,5.8l33.2-9.2l5.5-1.8v-10.7v-106v-7.6
	L100.8,67.1z"/>
<path class="st1" d="M162.2,208.7l37.4-10.5c3.4-1,6.2-5.7,6.2-10.5V65c0-4.9-2.8-7.8-6.2-6.5l-37.3,10.4l-6.2,2.2v11.8V202v8.5
	L162.2,208.7z"/>
<path class="st2" d="M161.6,201.3l32.8-9.4c3-0.9,5.4-5.1,5.4-9.4V73.1c0-4.3-2.4-6.9-5.4-5.8l-32.8,9.3l-5.5,1.8V89v106.3v7.6
	L161.6,201.3z"/>
<polygon class="st3" points="156.1,210.5 106.3,197.7 106.3,58.2 156.1,71 "/>
<polygon class="st4" points="156.1,203 106.3,189.9 106.3,65.6 156.1,78.2 "/>
<path class="st5" d="M135.9,161.1c0-5.2-3.8-9.4-8.4-9.4c-4.6,0-8.4,4.2-8.4,9.4c0,0.9,0.1,1.7,0.3,2.5h0c0,0,3.8,15.6,8.1,15.7
	c4.3,0.1,8.1-15.8,8.1-15.8h0C135.8,162.8,135.9,162,135.9,161.1z M127.5,165.8c-2.3,0-4.1-2.1-4.1-4.6c0-2.5,1.8-4.6,4.1-4.6
	c2.3,0,4.1,2.1,4.1,4.6C131.6,163.7,129.8,165.8,127.5,165.8z"/>
<path class="st5" d="M98.6,110.6c0-5.6-4.1-10.2-9.1-10.2c-5,0-9.1,4.6-9.1,10.2c0,0.9,0.1,1.8,0.3,2.7h0c0,0,4.1,16.9,8.7,17
	c4.7,0.1,8.8-17,8.8-17h0C98.4,112.4,98.6,111.6,98.6,110.6z M89.5,115.6c-2.4,0-4.4-2.2-4.4-5c0-2.8,2-5,4.4-5c2.4,0,4.4,2.2,4.4,5
	C93.9,113.4,91.9,115.6,89.5,115.6z"/>
<path class="st5" d="M189.5,105.5c0-5.4-3.9-9.7-8.6-9.7c-4.8,0-8.6,4.3-8.6,9.7c0,0.9,0.1,1.7,0.3,2.6h0c0,0,3.9,16,8.3,16.1
	c4.5,0.1,8.3-16.2,8.3-16.2h0C189.4,107.2,189.5,106.4,189.5,105.5z M180.9,110.3c-2.3,0-4.2-2.1-4.2-4.7c0-2.6,1.9-4.7,4.2-4.7
	c2.3,0,4.2,2.1,4.2,4.7C185.1,108.1,183.2,110.3,180.9,110.3z"/>
</svg>
