<?xml version="1.0" encoding="utf-8"?>
<!-- Generator: Adobe Illustrator 21.1.0, SVG Export Plug-In . SVG Version: 6.00 Build 0)  -->
<svg version="1.1" id="Слой_1" xmlns="http://www.w3.org/2000/svg" xmlns:xlink="http://www.w3.org/1999/xlink" x="0px" y="0px"
	 viewBox="0 0 256.2 256.2" style="enable-background:new 0 0 256.2 256.2;" xml:space="preserve">
<style type="text/css">
	.st0{fill:#FFFFFF;}
	.st1{fill:#333E4D;}
	.st2{fill:#2C3C4C;}
	.st3{fill:#50B09F;}
	.st4{fill:#D24A43;}
</style>
<circle id="круг" class="st0" cx="128.1" cy="128.1" r="128.1"/>
<path class="st1" d="M127.4,55.8c-1.1-2.9-12.3-1.2-13,2.1l13,37L127.4,55.8z"/>
<path class="st1" d="M127.5,134c1.1,2.9,12.3,1.2,13-2.1l-13-37L127.5,134z"/>
<path class="st1" d="M109.1,59.7c-2.3-2.2-11.7,3.9-10.7,7.1l29,28.1L109.1,59.7z"/>
<path class="st1" d="M145.8,130.1c2.3,2.2,11.7-3.9,10.7-7.1l-29-28.1L145.8,130.1z"/>
<path class="st1" d="M94.5,70.6c-3.1-1-8.7,8.2-6.3,10.7l39.3,13.6L94.5,70.6z"/>
<path class="st1" d="M160.4,119.3c3.1,1,8.7-8.2,6.3-10.7l-39.3-13.6L160.4,119.3z"/>
<path class="st1" d="M86.4,86.3c-3.3,0.4-4,10.9-0.7,12.2l41.8-3.5L86.4,86.3z"/>
<path class="st1" d="M168.5,103.6c3.3-0.4,4-10.9,0.7-12.2l-41.8,3.5L168.5,103.6z"/>
<path class="st1" d="M86.4,103.7c-2.8,1.6,1.5,11.4,5.1,11.3l36-20L86.4,103.7z"/>
<path class="st1" d="M168.5,86.1c2.8-1.6-1.5-11.4-5.1-11.3l-36,20L168.5,86.1z"/>
<path class="st1" d="M94.5,119.3c-1.8,2.6,6.7,9.7,9.8,8.1l23-32.5L94.5,119.3z"/>
<path class="st1" d="M160.3,70.5c1.7-2.6-6.7-9.7-9.8-8.1l-23,32.5L160.3,70.5z"/>
<path class="st1" d="M109.2,130.2c-0.4,3.1,10.6,6,12.6,3.3l5.6-38.6L109.2,130.2z"/>
<path class="st1" d="M145.6,59.6c0.4-3.1-10.6-6-12.6-3.3l-5.6,38.6L145.6,59.6z"/>
<polygon class="st2" points="121.8,98.6 104.3,123.8 94.4,223.6 110.5,207.8 123.2,226.1 134.4,113.2 "/>
<polygon class="st2" points="136.1,223.8 147.5,204.8 164.6,219.7 145.5,105.4 123.4,106.7 125.9,163.3 "/>
<path class="st3" d="M160.2,77.8c16.8,31.9-17.2,63.4-51.6,47.4c-5.9-2.8-10.9-7.4-14-13.2c-16.8-31.9,17.2-63.4,51.6-47.4
	C152.2,67.4,157.1,72,160.2,77.8z"/>
<path class="st4" d="M125.6,74.2c0,0-4.6,9.1-5.4,10.7c-1.9,0.3-16.9,2.5-16.9,2.5s11,9.7,12.4,11c-0.3,1.8-2.6,15.8-2.6,15.8
	s13.3-6.8,15-7.6c1.7,0.8,15.2,7.2,15.2,7.2s-2.8-13.9-3.1-15.7c1.4-1.3,12.1-11.3,12.1-11.3s-15-1.8-16.9-2.1
	c-0.9-1.6-7.8-14.2-7.8-14.2L125.6,74.2z"/>
</svg>
