<?xml version="1.0" encoding="utf-8"?>
<!-- Generator: Adobe Illustrator 21.1.0, SVG Export Plug-In . SVG Version: 6.00 Build 0)  -->
<svg version="1.1" id="Слой_1" xmlns="http://www.w3.org/2000/svg" xmlns:xlink="http://www.w3.org/1999/xlink" x="0px" y="0px"
	 viewBox="0 0 256.2 256.2" style="enable-background:new 0 0 256.2 256.2;" xml:space="preserve">
<style type="text/css">
	.st0{fill:#444A67;}
	.st1{fill:#C7DDA0;}
	.st2{fill:#F5CD6A;}
	.st3{fill:#FFFFFF;}
</style>
<circle class="st0" cx="128.1" cy="128.1" r="128.1"/>
<path class="st1" d="M147.5,69.5h-38.4c-1.4,0-2.5-1.1-2.5-2.5v0c0-1.4,1.1-2.5,2.5-2.5h38.4c1.4,0,2.5,1.1,2.5,2.5v0
	C150,68.4,148.9,69.5,147.5,69.5z"/>
<path class="st2" d="M104.7,47.3c0,0,4.4,8.7,6.3,14.7h33.7c0,0-4.6-18.4,13.1-24.3c0,0-7.7,2.5-16.9,1.1c-1.7-0.2-7.6-3.5-9.3-4.5
	c-3.3-2-2.6-3.6-9.8-3.7c-7.5-0.1-5.4,5.3-4.9,6.3c0.1,0.2,0.2,0.4,0.2,0.6c0.3,0.9,1.1,2.9,1.8,5.3c0.9,3.1-0.1,4.1-0.1,4.1
	s-1.8,1.7-8.1,0.8c-6.3-0.9-8.9-5.3-8.9-5.3L104.7,47.3z"/>
<path class="st2" d="M192.9,157.9c-0.7-6.5-3.3-21-5.2-25.5c-0.2-0.5-0.5-0.9-0.6-1.4c-1.6-4.3-9-23.3-18.4-35.7
	c-10.7-14.1-14.5-20-18.7-23.3H107c0,0-19.5,18.6-31.5,44.7c-0.9,1.9-1.6,3.9-2.2,5.8c-0.9,2.7-3,7.2-4.4,12.3
	c-2.8,9.7-5,21.6-4.5,27c0,0,0,5.6,1.9,12.1c2.2,7.5,6.7,16.5,13.6,22.8c14.2,12.9,13.4,11,26.5,16.2c19.6,7.8,45.3-0.3,45.3-0.3
	s18.4-6.1,29.6-20.3c10.1-12.9,10.7-19,11.8-28.2C193.1,162,193.1,160,192.9,157.9z M128.9,181.7c-18.1,0-32.8-14.7-32.8-32.9
	s14.7-32.9,32.8-32.9s32.8,14.7,32.8,32.9S147,181.7,128.9,181.7z"/>
<g>
	<rect x="124.6" y="121.6" class="st3" width="2.5" height="54.5"/>
	<rect x="129.1" y="121.6" class="st3" width="2.5" height="54.5"/>
	<g>
		<path class="st3" d="M117.5,161.5c1.3,1.5,3,2.8,4.9,3.9c1.9,1.1,4.1,1.7,6.7,1.7c2.9,0,5.2-0.7,6.9-2c1.7-1.3,2.6-3.3,2.6-5.8
			c0-2.5-0.8-4.3-2.4-5.5c-1.6-1.2-3.9-2.4-7.1-3.5l-2.4-1c-3.4-1.2-6.2-2.8-8.5-4.8c-2.3-2-3.4-4.7-3.4-8c0-3.4,1.3-6.1,3.9-8.1
			c2.6-2,5.9-3,9.8-3c3,0,5.6,0.5,7.6,1.4c2,0.9,3.9,2.2,5.6,3.9l-2.8,3.2c-1.2-1.1-2.6-2.1-4.3-3.1c-1.6-0.9-3.6-1.4-6-1.4
			c-2.6,0-4.7,0.6-6.4,1.8c-1.7,1.2-2.6,2.8-2.6,4.7c0,2.3,1,4.2,2.9,5.5c1.9,1.3,3.9,2.4,5.9,3.1l4.2,1.7c4.3,1.6,7.2,3.3,8.7,5.2
			c1.5,1.8,2.3,4.3,2.3,7.3c0,4-1.4,7.1-4.2,9.3c-2.8,2.2-6.3,3.3-10.4,3.3c-1.7,0-3.2-0.1-4.6-0.4c-1.4-0.2-2.7-0.6-3.9-1.1
			c-1.2-0.5-2.4-1.2-3.5-1.9c-1.1-0.8-2.1-1.7-3.2-2.8L117.5,161.5z"/>
	</g>
</g>
</svg>
