<?xml version="1.0" encoding="utf-8"?>
<!-- Generator: Adobe Illustrator 21.1.0, SVG Export Plug-In . SVG Version: 6.00 Build 0)  -->
<svg version="1.1" id="Слой_1" xmlns="http://www.w3.org/2000/svg" xmlns:xlink="http://www.w3.org/1999/xlink" x="0px" y="0px"
	 viewBox="0 0 256.2 256.2" style="enable-background:new 0 0 256.2 256.2;" xml:space="preserve">
<style type="text/css">
	.st0{fill:#FFFFFF;}
	.st1{fill:#9BD1EA;}
</style>
<circle class="st0" cx="128.1" cy="128.1" r="128.1"/>
<path class="st1" d="M139.5,231.1h-17.8c-18.9,0-34.4-15.5-34.4-34.4v-43.3h86.5v43.3C173.8,215.6,158.4,231.1,139.5,231.1z"/>
<path class="st1" d="M120.9,133.7V109 M124.8,87.4c-20.6,0-37.2,16.3-37.2,36.4v27.7h41.1v-11.2c-4.6-0.6-7.8-4.2-7.8-8.6v-24.7
	c0-4.4,3.3-8,7.8-8.6V87.4H124.8z M136.3,87.4H132v11c3.9,0.8,7.2,4.3,7.2,8.5v24.7c0,4.2-3.3,7.7-7.2,8.5v11.3h41.7v-27.7
	C173.7,103.7,157,87.4,136.3,87.4z"/>
<path class="st1" d="M137.2,106.9v24.7c0,0.5-0.3,0.9-0.4,1.4c0,0.1-0.1,0.2-0.2,0.3c0,0.1-0.1,0.2-0.1,0.3c0,0-0.1,0.1-0.1,0.1
	c0,0.1-0.1,0.2-0.1,0.3c0,0,0,0.1-0.1,0.1c0,0.1-0.1,0.2-0.1,0.3c-0.1,0.2-0.2,0.4-0.4,0.6c-0.1,0.2-0.2,0.3-0.4,0.5
	c-0.1,0.1-0.1,0.2-0.2,0.2c-0.8,0.8-1.8,1.5-2.9,1.8c-0.6,0.2-1.2,0.2-1.8,0.2c-0.5,0-0.9,0-1.3-0.1c-2.9-0.6-5-3.1-5-6.1v-24.7
	c0-3,2.1-5.5,5-6.1c0.4-0.1,0.9-0.1,1.3-0.1c0.6,0,1.2,0.1,1.8,0.2c1.1,0.3,2.1,0.9,2.9,1.8c0.1,0.1,0.1,0.1,0.2,0.2
	c0.1,0.2,0.3,0.3,0.4,0.5c0.1,0.2,0.3,0.4,0.4,0.6c0,0.1,0.1,0.2,0.1,0.3c0,0,0,0.1,0.1,0.1c0,0.1,0.1,0.2,0.1,0.3
	c0,0,0,0.1,0.1,0.1c0,0.1,0.1,0.2,0.1,0.3c0,0.1,0.2,0.2,0.3,0.3C136.9,105.9,137.2,106.4,137.2,106.9z"/>
<path class="st1" d="M126.4,87.4c0,0,5.9-11.7,4.1-20.8l-1.9-6.8c-0.3-1.1-0.6-2.1-1-3.1L125,50c-0.2-0.5-0.4-1.1-0.6-1.6
	c-1.2-2.8-1.4-7.2-0.6-10.7c0.7-2.7,2.4-5.6,5-7.7c0.3-0.2,0.9-0.8,1.2-1c1.1-0.9,4.1-3.3,8.6-4l3.1,4.8c0,0-9.9,1.4-11.3,10.3
	c-0.4,2.5,0,5.1,1,7.5c1.9,4.4,6.2,15.1,6.8,20.5c0,0,1.5,9-4.2,19.3H126.4z"/>
</svg>
