<?xml version="1.0" encoding="utf-8"?>
<!-- Generator: Adobe Illustrator 21.1.0, SVG Export Plug-In . SVG Version: 6.00 Build 0)  -->
<svg version="1.1" id="Слой_1" xmlns="http://www.w3.org/2000/svg" xmlns:xlink="http://www.w3.org/1999/xlink" x="0px" y="0px"
	 viewBox="0 0 256.2 256.2" style="enable-background:new 0 0 256.2 256.2;" xml:space="preserve">
<style type="text/css">
	.st0{fill:#FFFFFF;}
	.st1{opacity:0.5;}
</style>
<circle class="st0" cx="128.1" cy="128.1" r="128.1"/>
<g class="st1">
	<path d="M148.5,88.9h19.6l0,22.8l9.9-15.4V83.4c0-0.8-0.3-1.5-0.9-2.1L151.8,56c-0.6-0.6-1.3-0.9-2.1-0.9H71.5
		c-4.9,0-8.9,4-8.9,8.9V199c0,4.9,4,8.9,8.9,8.9h97.6c4.9,0,8.9-4,8.9-8.9v-38.3l-9.9,15.2l0,22.1H72.5V65h72.4v20.2
		C144.9,87.2,146.5,88.9,148.5,88.9L148.5,88.9z M148.5,88.9"/>
	<path d="M189.1,126.1l-4.1-2.7c-0.7-0.4-1.6-0.2-2,0.4l-22.1,33.8l-4.2-2.8l22.1-33.8c0.4-0.7,0.2-1.6-0.4-2l-4.1-2.7
		c-0.7-0.4-1.6-0.3-2,0.4l-33.1,50.6c-0.1,0.2-0.2,0.5-0.2,0.7l-0.9,17.6c0,0.5,0.2,1,0.7,1.3c0.4,0.3,1,0.3,1.4,0.1l15.7-7.8
		c0.2-0.1,0.4-0.3,0.6-0.5l33.1-50.6C190,127.4,189.8,126.6,189.1,126.1L189.1,126.1z M189.1,126.1"/>
	<path d="M202.7,105.4l-14.9-9.7c-0.7-0.4-1.6-0.2-2,0.4l-10,15.3c-0.4,0.7-0.3,1.6,0.4,2l14.9,9.7c0.7,0.4,1.6,0.3,2-0.4l10-15.3
		C203.5,106.7,203.3,105.8,202.7,105.4L202.7,105.4z M202.7,105.4"/>
	<path d="M86.9,86.9h28.4c2,0,3.6-1.6,3.6-3.6c0-2-1.6-3.6-3.6-3.6H86.9c-2,0-3.6,1.6-3.6,3.6C83.3,85.3,84.9,86.9,86.9,86.9
		L86.9,86.9z M86.9,86.9"/>
	<path d="M140.8,101.5c0-2-1.6-3.6-3.6-3.6H86.9c-2,0-3.6,1.6-3.6,3.6c0,2,1.6,3.6,3.6,3.6h50.2
		C139.2,105.1,140.8,103.5,140.8,101.5L140.8,101.5z M140.8,101.5"/>
	<path d="M86.9,123.3h28.4c2,0,3.6-1.6,3.6-3.6c0-2-1.6-3.6-3.6-3.6H86.9c-2,0-3.6,1.6-3.6,3.6C83.3,121.7,84.9,123.3,86.9,123.3
		L86.9,123.3z M86.9,123.3"/>
	<path d="M86.9,141.5h28.4c2,0,3.6-1.6,3.6-3.6c0-2-1.6-3.6-3.6-3.6H86.9c-2,0-3.6,1.6-3.6,3.6C83.3,139.9,84.9,141.5,86.9,141.5
		L86.9,141.5z M86.9,141.5"/>
	<path d="M88.5,188.5c-0.7,0.9,0.6,2.2,1.3,1.3c2.3-2.9,4.1-6.1,5.7-9.4c1,0.6,2.3,0.5,3.3,0.1c1.5-0.6,2.8-1.7,4-2.8
		c0.7-0.6,1.6-1.6,2.6-1.7c0.8-0.1,1.8,0.5,2.6,0.7c2,0.3,4.3-0.2,6.2-0.7c1.8-0.5,4-1.2,5-2.8c0.6-1-0.9-1.9-1.6-0.9
		c-0.9,1.3-3,1.7-4.4,2.1c-1.7,0.4-3.6,0.8-5.3,0.5c-1.3-0.2-2.3-1-3.7-0.4c-1.8,0.8-3.1,2.5-4.7,3.6c-0.7,0.5-1.5,1-2.4,1.1
		c-0.4,0-0.7-0.1-0.9-0.3c0.2-0.4,0.4-0.9,0.6-1.4c1.8-4.4,2.6-8.9,3.4-13.5c0.4-2.4,1.1-6.1-2.3-6.3c-3-0.2-5.6,4.1-6.5,6.4
		c-0.9,2-0.9,4.4-0.9,6.6c0,1.4,0.5,2.8,0.9,4.1c-2.9,0.5-5.4,3.4-4.9,6.2c0.4,2.8,4,1.4,5.3,0.3c1.3-1.1,1.8-2.4,1.8-3.8
		c0.3,0.4,0.5,1,0.7,1.5C92.7,182.3,90.8,185.6,88.5,188.5L88.5,188.5z M91.7,178.2c-0.3,1.2-1.8,2.4-3,2.5c-0.9,0.1-0.4-1.6-0.2-2
		c0.6-1.2,2-2,3.2-2.3C91.8,177.1,91.8,177.7,91.7,178.2L91.7,178.2z M93.2,174.7c-0.3-1.4-0.7-2.9-0.9-4.2
		c-0.2-2.5,0.2-5.2,1.5-7.4c0.8-1.4,2.4-3.5,4.1-3.7c1.5-0.2,0.6,3.5,0.5,4.3c-0.4,2.3-0.7,4.6-1.3,6.8c-0.5,2.1-1.2,4.2-2,6.2
		C94.7,175.7,94.2,175,93.2,174.7L93.2,174.7z M93.2,174.7"/>
</g>
</svg>
