<?xml version="1.0" encoding="utf-8"?>
<!-- Generator: Adobe Illustrator 21.1.0, SVG Export Plug-In . SVG Version: 6.00 Build 0)  -->
<svg version="1.1" id="Слой_1" xmlns="http://www.w3.org/2000/svg" xmlns:xlink="http://www.w3.org/1999/xlink" x="0px" y="0px"
	 viewBox="0 0 256.2 256.2" style="enable-background:new 0 0 256.2 256.2;" xml:space="preserve">
<style type="text/css">
	.st0{fill:#FFFFFF;}
	.st1{fill:#9BD1EA;}
</style>
<circle class="st0" cx="129.1" cy="128.1" r="128.1"/>
<polygon class="st1" points="162.4,114.7 162.4,119.5 94.1,119.5 94.1,114.8 94.1,114.5 94.2,114.1 111.4,75.7 145,75.7 
	162.5,114.5 162.5,114.6 "/>
<path class="st1" d="M140.5,66.5h-26.4l11.7-39.4c0.6-1.9,2.5-1.9,3.1,0L140.5,66.5z"/>
<path class="st1" d="M100.9,119.9L100.9,119.9v92.4l-0.1,9.5c-0.1,0-0.3-0.1-0.4-0.1c-2.1-0.6-4.1-1.3-6.2-2.1c-0.1,0-0.1,0-0.1-0.1
	v-105c0-0.2-0.1-0.3,0-0.5l0-0.2v-0.1l0,0l0.3-0.4c0.4-0.6,1.3-0.6,1.7,0l4.4,5.8c0.1,0.2,0.3,0.4,0.3,0.6
	C100.8,119.7,100.9,119.8,100.9,119.9z"/>
<path class="st1" d="M122.7,119.9v105.6c-1.2-0.1-2.6-0.2-3.9-0.3c-2.1-0.2-4.2-0.5-6.3-0.8c0,0-0.1,0-0.1,0c-0.3,0-0.2-0.1-0.9-0.1
	V119.9c0,0,0.1,0,0.1,0c0-0.3,0.2-0.6,0.3-0.8l4.4-5.8c0.4-0.6,1.3-0.6,1.7,0l4.3,5.8C122.6,119.3,122.7,119.6,122.7,119.9z"/>
<path class="st1" d="M145,119.9v104.3c-0.6,0-0.6,0.1-0.9,0.1c-2.1,0.3-4.2,0.6-6.3,0.8c-1.3,0.1-2.7,0.2-3.9,0.3V119.9c0,0,0,0,0,0
	c0-0.3,0.1-0.6,0.2-0.8l4.4-5.8c0.5-0.6,1.3-0.6,1.7,0l4.5,5.8C144.8,119.3,145,119.6,145,119.9z"/>
<path class="st1" d="M155.6,221.7V119.9c0,0,0.1,0,0.1,0c0,0,0.1,0,0.1,0c0,0-0.1,0-0.1,0c0,0-0.1-0.1-0.1-0.1v0
	c0-0.2,0.2-0.4,0.4-0.6l4.4-5.8c0.5-0.6,1.3-0.6,1.8,0l0.3,0.4l0.1,0.1c0,0,0,0,0,0.1c0,0,0,0,0,0.1c0,0-0.1,51.7-0.1,105.5
	C160.2,220.3,158,221.1,155.6,221.7z"/>
</svg>
