<?xml version="1.0" encoding="utf-8"?>
<!-- Generator: Adobe Illustrator 21.1.0, SVG Export Plug-In . SVG Version: 6.00 Build 0)  -->
<svg version="1.1" id="Слой_1" xmlns="http://www.w3.org/2000/svg" xmlns:xlink="http://www.w3.org/1999/xlink" x="0px" y="0px"
	 viewBox="0 0 256.2 256.2" style="enable-background:new 0 0 256.2 256.2;" xml:space="preserve">
<style type="text/css">
	.st0{fill:#444A67;}
	.st1{fill:#C8DCA0;}
	.st2{fill:#D3C84C;}
</style>
<circle class="st0" cx="128.1" cy="128.1" r="128.1"/>
<path class="st1" d="M104.2,125.8c-4.1,1.7-7.8,4-11.1,7c-3.6,3.2-6.6,7.3-9,11.9c-0.4,0.7-0.7,1.6-1,2.2H49l3.6-21.2
	c1.8-12.4,8.5-21.9,18.7-25.5c2.3,2.2,4.9,3.8,7.9,5c3.1,1.2,6.3,1.8,9.7,1.8c3.3,0,6.6-0.6,9.6-1.8c-0.1,1-0.2,2.1-0.2,3.1
	c0,2.3,0.3,4.7,0.8,6.9c0.5,2.2,1.3,4.3,2.4,6.4C102.3,123,103.2,124.4,104.2,125.8z"/>
<path class="st1" d="M109.3,83.3c0,0.7,0,1.4-0.1,2.1c-0.6,0.5-1.1,0.9-1.6,1.4c-2.9,2.8-5.2,6-6.8,9.6c-0.5,1.2-1,2.3-1.3,3.5
	c-3.1,1.8-6.7,2.8-10.6,2.8c-4.9,0-9.3-1.6-12.8-4.3c-4.7-3.6-7.7-9.1-7.7-15.2c0-10.8,9.2-19.5,20.5-19.5S109.3,72.5,109.3,83.3z"
	/>
<path class="st1" d="M211.3,146.8h-34c-0.3-0.6-0.7-1.6-1.1-2.3c-4.6-8.7-11.5-15.2-20.1-18.7c1-1.3,1.9-2.7,2.6-4.2
	c1-2,1.9-4.2,2.4-6.4c0.6-2.3,0.8-4.6,0.8-6.9c0-1-0.1-2.1-0.2-3.1c3,1.2,6.3,1.8,9.6,1.8c3.4,0,6.6-0.6,9.7-1.9
	c2.9-1.2,5.6-2.9,7.9-5c10.2,3.6,16.9,13.2,18.7,25.5L211.3,146.8z"/>
<path class="st1" d="M191.9,83.3c0,6.2-3,11.6-7.7,15.2c-3.5,2.7-8,4.3-12.8,4.3c-3.9,0-7.5-1-10.6-2.8c-0.4-1.2-0.8-2.4-1.3-3.5
	c-1.6-3.6-3.9-6.8-6.8-9.6c-0.5-0.5-1.1-1-1.6-1.4c-0.1-0.7-0.1-1.4-0.1-2.1c0-10.8,9.2-19.5,20.5-19.5
	C182.7,63.8,191.9,72.5,191.9,83.3z"/>
<path class="st2" d="M181.1,197.7h-102l4.6-27.4c0.9-5.8,2.5-11.2,4.9-15.8c0-0.1,0.1-0.1,0.1-0.2c4.2-7.9,10.7-13.9,18.9-16.8
	c0,0,0,0,0-0.1c0.6,0.5,1.2,1.1,1.8,1.5c0.1,0.1,0.1,0.1,0.2,0.2c0.1,0.1,0.2,0.1,0.3,0.2c0.1,0.1,0.2,0.1,0.3,0.2
	c0.1,0.1,0.2,0.1,0.3,0.2c0.1,0.1,0.2,0.1,0.3,0.2c2.1,1.5,4.4,2.8,6.9,3.8c0,0,0.1,0,0.1,0c1.2,0.5,2.3,0.9,3.5,1.2
	c0.1,0,0.2,0.1,0.3,0.1c0.1,0,0.2,0,0.3,0.1c0.1,0,0.1,0,0.1,0c0,0,0.1,0,0.1,0c0.1,0,0.2,0.1,0.3,0.1c0,0,0.1,0,0.1,0
	c1.6,0.4,3.2,0.8,4.8,0.8c0,0,0,0,0,0c0.9,0,1.9,0.1,2.8,0.1c0.9,0,1.9,0,2.8-0.1c0,0,0,0,0,0c1.3-0.1,2.7-0.3,4-0.6c0,0,0,0,0,0
	c0.3-0.1,0.6-0.1,0.9-0.2c0.3-0.1,0.6-0.1,0.9-0.2c0.2,0,0.3-0.1,0.5-0.1c0,0,0.1,0,0.1,0c0.5-0.1,0.9-0.3,1.4-0.4
	c0.3-0.1,0.6-0.2,0.9-0.3c0.3-0.1,0.6-0.2,0.9-0.3c3.8-1.5,7.2-3.7,10.1-6.4l0,0c0,0,0,0,0,0c8.3,2.9,14.8,8.9,19,16.9
	c2.4,4.6,4.1,10.3,4.9,16L181.1,197.7z"/>
<path class="st2" d="M156.3,108.2c0,7.9-3.8,14.9-9.8,19.5c-3.6,2.7-7.9,4.6-12.7,5.2c-1.2,0.2-2.5,0.3-3.7,0.3s-2.5-0.1-3.7-0.3
	c-4.8-0.6-9.1-2.5-12.7-5.2c-6-4.6-9.8-11.6-9.8-19.5c0-2.4,0.4-4.7,1-6.9c3.1-10.4,13.2-18.1,25.2-18.1s22.1,7.6,25.2,18.1
	C156,103.5,156.3,105.8,156.3,108.2z"/>
</svg>
