<?xml version="1.0" encoding="utf-8"?>
<!-- Generator: Adobe Illustrator 21.1.0, SVG Export Plug-In . SVG Version: 6.00 Build 0)  -->
<svg version="1.1" id="Слой_1" xmlns="http://www.w3.org/2000/svg" xmlns:xlink="http://www.w3.org/1999/xlink" x="0px" y="0px"
	 viewBox="0 0 256.2 256.2" style="enable-background:new 0 0 256.2 256.2;" xml:space="preserve">
<style type="text/css">
	.st0{fill:#444A67;}
	.st1{fill:#50A099;}
	.st2{fill:#A64E45;}
	.st3{fill:#58B5B9;}
	.st4{fill:#23292F;}
	.st5{fill:#FFFFFF;}
</style>
<circle class="st0" cx="128.1" cy="128.1" r="128.1"/>
<path class="st1" d="M115.7,182.8c0,0-0.2,3.8-0.4,4.3c-1.1,3-4.2,5.3-8,5.3c-3.8,0-6.9-2.2-8-5.3c-0.2-0.5-0.3-1-0.3-1.5l0.7-0.7
	l2.9-5.7C109.4,182.4,107.6,181.9,115.7,182.8z"/>
<path class="st1" d="M187.7,177v6.8h0c-0.4,3.8-4,6.8-8.3,6.8c-4.3,0-7.9-3-8.3-6.8l-3.8-0.5l8.5-6.8
	C188.1,175.3,187.7,177,187.7,177z"/>
<path class="st2" d="M151.8,77.9c0,0.2,0,0.4-0.1,0.6c-0.2-1.3-1.2-2.3-2.4-2.3h-42c-0.7,0-1.3,0.3-1.8,0.8
	c-0.3,0.4-0.6,0.9-0.7,1.4c0-0.2-0.1-0.4-0.1-0.6c0-0.8,0.3-1.5,0.7-2c0.5-0.5,1.1-0.8,1.8-0.8h42C150.7,75,151.8,76.3,151.8,77.9z"
	/>
<path class="st1" d="M53.9,123c-0.6,2.7-5.9,7.2-14.9,1.6c1.6-0.9,3.5-1.8,4.7-4.4l0,0c1.5-3.3,0.3-6.5-1.9-8.8
	c-1.9-2-5-3.5-7.7-3.8c-8.5-0.3-5.4,11,0.2,16l0.3,0.3c0.3,0.3,0.5,0.5,0.7,0.7c-1.3,1.1-3.7,2.5-6.3,3.2c-0.8,0.2-1.4,1-1.3,1.8
	c0,0,0,0,0,0c0,0.3,0.3,0.6,0.6,0.6c1,0.2,3.8,0.1,8.8-4.1c3.6,2.8,8.1,5,11.8,4.9c3.9-0.1,8-2,8.7-6.5L53.9,123z M37.3,111.9
	c1,0.4,1.8,1.2,2.3,2.1c0.3,0.5,0.5,1.1,0.7,1.6c0.4,1.1,0.3,2.3-0.3,3.3c-1.2,2.1-2.6,3.5-2.6,3.5
	C31.3,119.1,30.2,108.7,37.3,111.9z"/>
<path class="st1" d="M157.9,84.9l0,14.7c-0.2-0.7-1.8,3.2-8.5,3c-2.2-0.1-4.3-0.5-6.2-1.4c-0.2-0.8-0.3-1.6-0.3-2.5
	C143,91.3,149.6,85.2,157.9,84.9z"/>
<path class="st3" d="M229.3,112.2c-0.6-0.6-1.5-0.9-2.5-0.9h-9.1c0,0,0-0.1,0-0.1c-6.9-19.5-28.8-36.9-48.3-40.4
	c-0.6-0.1-1.2-0.2-1.8-0.3V59.6h-0.1c-0.1,0-0.1,0-0.2,0c-7.4,0.1-13.3,4.5-13.3,10L111.8,70c-30.6,0-56.4,18.7-63.9,44
	c-0.9,3.1-2.8,10.6-1.6,22.7c0,0,5.1,30.8,33.6,40.7L79.9,192h0c0,6.1,5.6,11.1,12.4,11.1c6.8,0,12.4-4.9,12.4-11.1h0v0l0-7.4
	c2.3,0.2,51.9,0.3,52.9,0.3l0,7.1h0c0,6.1,5.6,11.1,12.4,11.1c6.8,0,12.4-4.9,12.4-11.1h0v0h0l0-12.2c16.6-6.9,29.5-17.3,35.1-33.1
	c0,0,0,0,0,0h9.1c1.9,0,3.5-1.4,3.5-3.1v-29.1C230.3,113.6,229.9,112.8,229.3,112.2z"/>
<ellipse class="st4" cx="189.1" cy="112" rx="7.3" ry="6.6"/>
<ellipse class="st5" cx="191" cy="110.1" rx="1.7" ry="1.5"/>
<path class="st1" d="M230.3,114.4v29.1c0,1.7-1.6,3.1-3.5,3.1h-9.1c0,0,0,0,0,0c-6.6-2.6-11.3-9.6-11.3-17.7
	c0-8.2,4.7-15.2,11.4-17.8c0,0,0,0.1,0,0.1h9.1c1,0,1.8,0.3,2.5,0.9C229.9,112.8,230.3,113.5,230.3,114.4z"/>
<path class="st4" d="M151.7,77.9L151.7,77.9c-0.2,1-1.2,1.7-2.4,1.7h-42c-1.2,0-2.2-0.7-2.4-1.7v0c0.1-0.4,0.3-0.8,0.7-1.1
	c0.5-0.4,1.1-0.6,1.8-0.6h42C150.5,76.2,151.5,76.9,151.7,77.9z"/>
</svg>
