<?xml version="1.0" encoding="utf-8"?>
<!-- Generator: Adobe Illustrator 21.1.0, SVG Export Plug-In . SVG Version: 6.00 Build 0)  -->
<svg version="1.1" id="Слой_1" xmlns="http://www.w3.org/2000/svg" xmlns:xlink="http://www.w3.org/1999/xlink" x="0px" y="0px"
	 viewBox="0 0 256.2 256.2" style="enable-background:new 0 0 256.2 256.2;" xml:space="preserve">
<style type="text/css">
	.st0{fill:#FFFFFF;}
	.st1{opacity:0.5;}
	.st2{clip-path:url(#SVGID_2_);}
</style>
<circle class="st0" cx="128.1" cy="128.1" r="128.1"/>
<g class="st1">
	<g>
		<defs>
			<rect id="SVGID_1_" x="47.7" y="50.4" width="161" height="159.8"/>
		</defs>
		<clipPath id="SVGID_2_">
			<use xlink:href="#SVGID_1_"  style="overflow:visible;"/>
		</clipPath>
		<path class="st2" d="M203.3,51.6h-85.5c-2.8,0-5.1,2.3-5.1,5.1v36.3l3.7-4.3c1.8-2.1,4.1-3.3,6.6-3.9V61.9h75.2v67.2H123v-11.2
			l-2.3,2.7c-2,2.4-4.9,3.8-8,4.1v9.6c0,2.8,2.3,5.1,5.1,5.1h27.8l-14.1,64c-0.6,2.9,1.2,5.7,4.1,6.3c2.8,0.6,5.7-1.2,6.3-4.1
			l14.6-66.3h8.5l14.6,66.3c0.5,2.5,2.8,4.2,5.2,4.2c0.4,0,0.8,0,1.2-0.1c2.9-0.6,4.7-3.5,4-6.3l-14.1-64h27.4
			c2.8,0,5.1-2.3,5.1-5.1V56.8C208.5,53.9,206.2,51.6,203.3,51.6L203.3,51.6z M203.3,51.6"/>
		<path class="st2" d="M162.5,81.7c-0.4-1-1.6-1.5-2.6-1.1l-30.3,10.7c-2.8-2.2-6.8-1.8-9.1,0.9l-9.6,11.2l-8.5-7.3
			c0.1,0.6,0.2,1.2,0.2,1.8v15.9l4.7,4.1c2.8,2.4,7,2,9.4-0.7l11.4-13.4l9.2-5.4l24.3-14.2C162.5,83.6,162.8,82.6,162.5,81.7
			L162.5,81.7z M162.5,81.7"/>
		<path class="st2" d="M83.8,84.5h-5.7c-4.4,0-8.2,2.1-10.7,5.4L49.9,106c-2.7,2.4-3,6.6-0.5,9.4l14.3,16c2.4,2.7,6.7,3,9.4,0.5
			c2.7-2.5,3-6.7,0.5-9.4l-9.9-11l14-12.5L69.6,110l8,8.9c4.4,4.9,4,12.5-0.9,16.9c-3.4,3-8,3.7-11.9,2.3c0,0,0.1,30.8,0.1,63.7
			c0,4.4,3.6,8,8,8c4.4,0,8-3.6,8-8v-47.6H86v47.6c0,2.3-0.6,4.4-1.7,6.3c1.3,1,3,1.7,4.8,1.7c4.4,0,8-3.6,8-8c0-33,0-19.1,0-104
			C97.2,90.5,91.2,84.5,83.8,84.5L83.8,84.5z M83.8,84.5"/>
	</g>
	<path d="M73.8,79.7c2.1,1.1,4.5,1.8,7.1,1.8c2.6,0,5-0.7,7.1-1.8c5-2.6,8.4-7.7,8.4-13.8c0-8.6-7-15.6-15.6-15.6
		c-8.6,0-15.6,7-15.6,15.6C65.4,72,68.8,77.1,73.8,79.7L73.8,79.7z M73.8,79.7"/>
</g>
</svg>
