<?xml version="1.0" encoding="utf-8"?>
<!-- Generator: Adobe Illustrator 21.1.0, SVG Export Plug-In . SVG Version: 6.00 Build 0)  -->
<svg version="1.1" id="Слой_1" xmlns="http://www.w3.org/2000/svg" xmlns:xlink="http://www.w3.org/1999/xlink" x="0px" y="0px"
	 viewBox="0 0 256.2 256.2" style="enable-background:new 0 0 256.2 256.2;" xml:space="preserve">
<style type="text/css">
	.st0{fill:#FFFFFF;}
	.st1{fill:#9BD1EA;}
</style>
<circle class="st0" cx="128.1" cy="128.1" r="128.1"/>
<path class="st1" d="M118.7,55c0,0-16.8,35.6-19.8,42c-6.9,1.1-61.4,9.9-61.4,9.9s40.1,38.2,45.2,43c-1.1,6.9-9.6,61.8-9.6,61.8
	s48.5-26.6,54.6-29.9c6.2,3.2,55.5,28.3,55.5,28.3s-10.1-54.6-11.4-61.5c4.9-5,43.9-44.3,43.9-44.3s-54.8-7.2-61.7-8.1
	c-3.2-6.3-28.4-55.7-28.4-55.7L118.7,55z"/>
</svg>
