<?xml version="1.0" encoding="utf-8"?>
<!-- Generator: Adobe Illustrator 21.1.0, SVG Export Plug-In . SVG Version: 6.00 Build 0)  -->
<svg version="1.1" id="Слой_1" xmlns="http://www.w3.org/2000/svg" xmlns:xlink="http://www.w3.org/1999/xlink" x="0px" y="0px"
	 viewBox="0 0 256.2 256.2" style="enable-background:new 0 0 256.2 256.2;" xml:space="preserve">
<style type="text/css">
	.st0{fill:#FFFFFF;}
	.st1{opacity:0.5;}
</style>
<circle class="st0" cx="128.1" cy="128.1" r="128.1"/>
<g class="st1">
	<path d="M103.2,113.1h-0.3c-1.1,0-2,0.7-2.4,1.7L96,128.6l-4.6-13.8c-0.3-1-1.3-1.7-2.4-1.7h-0.4c-1.1,0-2,0.7-2.4,1.7l-4.6,13.8
		l-4.6-13.8c-0.3-1-1.3-1.7-2.4-1.7h-0.3c-0.8,0-1.6,0.4-2,1c-0.5,0.7-0.6,1.5-0.3,2.2l7,20.8c0.3,1,1.3,1.7,2.4,1.7h0.2
		c0,0,0,0,0,0c0,0,0,0,0,0h0.1c1.1,0,2-0.7,2.4-1.7l4.6-13.7l4.6,13.7c0.3,1,1.3,1.7,2.4,1.7H96c0,0,0,0,0,0c0,0,0,0,0,0h0.1
		c1.1,0,2-0.7,2.4-1.7l7-20.8c0.3-0.8,0.1-1.6-0.3-2.2C104.8,113.5,104,113.1,103.2,113.1L103.2,113.1z M103.2,113.1"/>
	<path d="M137.6,113.1h-0.3c-1.1,0-2,0.7-2.4,1.7l-4.6,13.8l-4.6-13.8c-0.3-1-1.3-1.7-2.4-1.7h-0.4c-1.1,0-2,0.7-2.4,1.7l-4.6,13.8
		l-4.6-13.8c-0.3-1-1.3-1.7-2.4-1.7h-0.3c-0.8,0-1.6,0.4-2,1c-0.5,0.7-0.6,1.5-0.3,2.2l7,20.8c0.3,1,1.3,1.7,2.4,1.7h0.2
		c0,0,0,0,0,0c0,0,0,0,0,0h0.1c1.1,0,2-0.7,2.4-1.7l4.6-13.7l4.6,13.7c0.3,1,1.3,1.7,2.4,1.7h0.2c0,0,0,0,0,0c0,0,0,0,0,0h0.1
		c1.1,0,2-0.7,2.4-1.7l7-20.8c0.3-0.8,0.1-1.6-0.3-2.2C139.2,113.5,138.4,113.1,137.6,113.1L137.6,113.1z M137.6,113.1"/>
	<path d="M172.1,113.1h-0.3c-1.1,0-2,0.7-2.4,1.7l-4.6,13.8l-4.6-13.8c-0.3-1-1.3-1.7-2.4-1.7h-0.4c-1.1,0-2,0.7-2.4,1.7l-4.6,13.8
		l-4.6-13.8c-0.3-1-1.3-1.7-2.4-1.7h-0.3c-0.8,0-1.6,0.4-2,1c-0.5,0.7-0.6,1.5-0.3,2.2l7,20.8c0.3,1,1.3,1.7,2.4,1.7h0.2
		c0,0,0,0,0,0c0,0,0,0,0,0h0.1c1.1,0,2-0.7,2.4-1.7l4.6-13.7l4.6,13.7c0.3,1,1.3,1.7,2.4,1.7h0.2c0,0,0,0,0,0c0,0,0,0,0,0h0.1
		c1.1,0,2-0.7,2.4-1.7l7-20.8c0.3-0.8,0.1-1.6-0.3-2.2C173.6,113.5,172.9,113.1,172.1,113.1L172.1,113.1z M172.1,113.1"/>
	<path d="M59.2,185.8V92.7h128.2V146c2.6-2.2,5.8-3.4,9.2-3.4c0.5,0,1.1,0,1.6,0.1V69.5c0-5-4-9-9-9H57.4c-5,0-9,4-9,9v118.1
		c0,5,4,9,9,9h85.9c-2.1-3.3-3.6-6.9-4.4-10.8H59.2z M177.5,75.6c0-1.8,1.5-3.3,3.3-3.3h3.3c1.8,0,3.3,1.5,3.3,3.3v3.8
		c0,1.8-1.5,3.3-3.3,3.3h-3.3c-1.8,0-3.3-1.5-3.3-3.3V75.6z M162,75.6c0-1.8,1.5-3.3,3.3-3.3h3.3c1.8,0,3.3,1.5,3.3,3.3v3.8
		c0,1.8-1.5,3.3-3.3,3.3h-3.3c-1.8,0-3.3-1.5-3.3-3.3V75.6z M146.6,75.6c0-1.8,1.5-3.3,3.3-3.3h3.3c1.8,0,3.3,1.5,3.3,3.3v3.8
		c0,1.8-1.5,3.3-3.3,3.3h-3.3c-1.8,0-3.3-1.5-3.3-3.3V75.6z M146.6,75.6"/>
	<path d="M207.6,161.7c0-1.8-0.7-3.4-1.9-4.6l-4.9-4.9c-1.2-1.2-2.9-1.9-4.6-1.9c-1.8,0-3.4,0.7-4.6,1.9l-7.5,7.5
		c-4-2.9-8.9-4.6-14.2-4.6c-13.5,0-24.4,10.9-24.4,24.4c0,13.5,10.9,24.4,24.4,24.4c13.5,0,24.4-10.9,24.4-24.4c0-0.5,0-1.1-0.1-1.6
		l11.5-11.5C206.9,165.1,207.6,163.4,207.6,161.7L207.6,161.7z M200.3,163.1l-23.5,23.5c-0.5,0.5-1.2,0.8-1.9,0.8
		c-0.7,0-1.4-0.3-1.9-0.8l-10.9-10.9c-1-1-1-2.7,0-3.7l2.1-2.1c1-1,2.7-1,3.7,0l6.9,6.9l19.5-19.5c0.5-0.5,1.2-0.8,1.9-0.8
		c0.7,0,1.4,0.3,1.9,0.8l2.1,2.1C201.3,160.4,201.3,162.1,200.3,163.1L200.3,163.1z M200.3,163.1"/>
</g>
</svg>
